<svg width="29" height="30" viewBox="0 0 29 30" fill="none" xmlns="http://www.w3.org/2000/svg">
<path d="M28.6992 28.5486L26.8299 24.7207L25.0118 20.9975L24.1945 19.3235L22.3763 15.6003L16.7044 3.98493L14.9953 0.486574C14.8474 0.184163 14.4163 0.184163 14.2685 0.486574L12.8168 3.45833C12.6548 3.7903 12.6548 4.17894 12.8168 4.51091L14.6319 8.2273L18.2319 15.5997L20.05 19.3229L20.8679 20.9969L22.6861 24.7201L24.5763 28.5917C24.7309 28.9089 25.053 29.1096 25.406 29.1096H28.3481C28.637 29.1096 28.8261 28.8072 28.6992 28.5479V28.5486Z" fill="#34485C"/>
<path d="M20.8246 24.7208L19.3692 21.7399C19.1475 21.2853 18.6862 20.9971 18.1805 20.9971H5.07955C4.57389 20.9971 4.11257 21.2853 3.89085 21.7399L2.43546 24.7208L0.565562 28.5487C0.438685 28.808 0.627768 29.1104 0.916629 29.1104H3.85882C4.21173 29.1104 4.53385 28.909 4.68845 28.5924L6.38527 25.1169C6.50353 24.8742 6.74989 24.7208 7.01966 24.7208H16.2398C16.5096 24.7208 16.7559 24.8748 16.8742 25.1169L18.571 28.5924C18.7256 28.9096 19.0477 29.1104 19.4006 29.1104H22.3422C22.6311 29.1104 22.8195 28.808 22.6933 28.5487L20.8246 24.7208Z" fill="#34485C"/>
<path d="M5.86734 19.3234H17.3904C17.7587 19.3234 17.9995 18.9379 17.8375 18.6071L17.4464 17.8058L16.7221 16.3215C16.5065 15.8799 16.0581 15.6003 15.5673 15.6003H11.6107C11.3434 15.6003 11.1685 15.3206 11.2861 15.0804L13.4258 10.6989C13.5994 10.3429 13.5994 9.92714 13.4258 9.57115L11.9925 6.63696C11.8447 6.33455 11.4136 6.33455 11.2658 6.63696L6.88851 15.6009L5.42019 18.6077C5.25882 18.9385 5.49964 19.324 5.86734 19.324V19.3234Z" fill="#34485C"/>
</svg>
