<svg width="195" height="112" viewBox="0 0 195 112" fill="none" xmlns="http://www.w3.org/2000/svg">
<path d="M137.081 79.5885L131.823 68.8202L126.707 58.3443L124.406 53.6355L119.29 43.1596L103.333 10.48L98.5257 0.638312C98.1117 -0.212771 96.8958 -0.212771 96.4818 0.638312L92.3973 9.00127C91.9405 9.9345 91.9405 11.0287 92.3973 11.962L97.5037 22.4181L107.631 43.1596L112.748 53.6355L115.048 58.3443L120.164 68.8202L125.481 79.7134C125.918 80.6039 126.822 81.1724 127.814 81.1724H136.092C136.903 81.1724 137.436 80.3213 137.077 79.5918L137.081 79.5885Z" fill="#CDB083"/>
<path d="M114.922 68.8206L110.827 60.4346C110.203 59.1564 108.905 58.3447 107.482 58.3447H70.6259C69.2031 58.3447 67.9051 59.1564 67.2808 60.4346L63.1864 68.8206L57.9287 79.5889C57.5738 80.3184 58.1029 81.1695 58.9145 81.1695H67.192C68.1844 81.1695 69.0914 80.6043 69.5251 79.7105L74.2997 69.9346C74.6316 69.2511 75.325 68.8206 76.084 68.8206H102.024C102.783 68.8206 103.476 69.2544 103.808 69.9346L108.583 79.7105C109.02 80.601 109.924 81.1695 110.916 81.1695H119.19C120.002 81.1695 120.534 80.3184 120.176 79.5889L114.918 68.8206H114.922Z" fill="#CDB083"/>
<path d="M72.8459 53.6349H105.266C106.301 53.6349 106.978 52.5505 106.525 51.6206L105.424 49.3664L103.386 45.1898C102.778 43.9477 101.52 43.159 100.136 43.159H89.0067C88.2542 43.159 87.7645 42.3704 88.0931 41.6968L94.1132 29.3708C94.6028 28.3686 94.6028 27.1988 94.1132 26.1965L90.0812 17.942C89.6639 17.0909 88.4513 17.0909 88.0373 17.942L75.7212 43.159L71.5907 51.6173C71.1372 52.5472 71.8141 53.6316 72.8492 53.6316L72.8459 53.6349Z" fill="#CDB083"/>
<path d="M11.0181 92.714H13.6502C13.8736 92.714 14.0938 92.7172 14.3074 92.7271C14.521 92.737 14.6984 92.783 14.8364 92.8684C14.889 92.9045 14.9284 92.9604 14.9515 93.036C14.9777 93.1149 14.9975 93.197 15.0172 93.2824V93.4106C15.0336 93.4796 15.0435 93.5585 15.0435 93.6439V94.909C15.0435 95.0306 15.0467 95.1456 15.0566 95.2574C15.0665 95.3691 15.0533 95.4775 15.0172 95.5794C14.9317 95.8718 14.7609 96.0263 14.5013 96.0427C14.245 96.0591 13.9328 96.069 13.5713 96.069H10.9392C10.5942 96.069 10.2984 96.0821 10.0487 96.1084C9.79895 96.1347 9.63136 96.2925 9.54593 96.5849C9.5295 96.6704 9.5295 96.7492 9.54593 96.8182C9.56236 96.8872 9.55578 96.9628 9.51964 97.0515C9.50321 97.1567 9.49664 97.2717 9.50649 97.3998C9.51307 97.528 9.51964 97.6463 9.51964 97.7482V109.897C9.51964 110.173 9.50649 110.409 9.48021 110.606C9.45392 110.804 9.34548 110.945 9.15818 111.03C9.03659 111.066 8.89858 111.083 8.74413 111.083H6.55235C6.36176 111.083 6.1876 111.073 6.0233 111.057C5.859 111.04 5.73413 110.978 5.64869 110.876C5.56325 110.738 5.52054 110.564 5.52054 110.347V97.7449C5.52054 97.6233 5.52382 97.5017 5.53368 97.3703C5.54025 97.2421 5.52711 97.1271 5.49425 97.022C5.47782 96.9365 5.47782 96.8577 5.49425 96.7886C5.51068 96.7196 5.50082 96.6506 5.46796 96.5816C5.38252 96.2892 5.20508 96.1314 4.93891 96.1051C4.67274 96.0789 4.35728 96.0657 3.99582 96.0657H1.59701C1.40642 96.0657 1.19612 96.069 0.966094 96.0789C0.732785 96.0887 0.548768 96.0756 0.410754 96.0394C0.272741 95.9869 0.170874 95.9113 0.101867 95.8061C0.0492905 95.7207 0.0197162 95.609 0.0131441 95.4709C0.00328603 95.3329 0 95.1949 0 95.0569V93.7918C0 93.5683 0.0131441 93.3712 0.0394324 93.197C0.0657207 93.0261 0.147872 92.898 0.282599 92.8093C0.335175 92.7731 0.427184 92.7402 0.565198 92.7041H11.0115L11.0181 92.714Z" fill="white"/>
<path d="M17.9018 92.7129H19.9654C20.2579 92.7129 20.5109 92.7261 20.7278 92.7524C20.9414 92.7786 21.0925 92.9101 21.178 93.1533C21.2141 93.2387 21.2306 93.3307 21.2306 93.4227V97.7175C21.2306 98.01 21.2207 98.3419 21.2043 98.7099C21.1878 99.0813 21.247 99.3606 21.385 99.5479C21.4704 99.653 21.569 99.7089 21.6807 99.7155C21.7925 99.7253 21.9173 99.745 22.0554 99.7812H27.0074C27.3163 99.7812 27.635 99.7779 27.9604 99.768C28.2857 99.7582 28.5091 99.653 28.6307 99.446C28.7161 99.2916 28.7523 99.0583 28.7326 98.7494C28.7129 98.4405 28.7063 98.1644 28.7063 97.9246V94.5728C28.7063 94.3132 28.6997 94.0142 28.6931 93.6692C28.6833 93.3241 28.7391 93.0842 28.8607 92.9462C28.9133 92.8608 29.0185 92.8016 29.1828 92.7655C29.3471 92.7293 29.5311 92.7096 29.7381 92.6998C29.9451 92.6899 30.1521 92.6899 30.3559 92.6998C30.5629 92.7096 30.7436 92.7129 30.8981 92.7129C31.1905 92.7129 31.4961 92.7096 31.8149 92.6998C32.1336 92.6899 32.3702 92.7556 32.5247 92.8937C32.6462 92.9791 32.7054 93.1204 32.7054 93.3208V110.434C32.7054 110.658 32.6462 110.812 32.5247 110.898C32.3702 111.036 32.1238 111.102 31.7886 111.092C31.4534 111.082 31.138 111.079 30.8455 111.079C30.6911 111.079 30.5136 111.082 30.3164 111.092C30.1193 111.102 29.9188 111.102 29.7217 111.092C29.5245 111.082 29.3438 111.065 29.1795 111.039C29.0152 111.013 28.91 110.957 28.8574 110.872C28.8049 110.803 28.7654 110.688 28.7424 110.523C28.7161 110.359 28.6997 110.188 28.6899 110.007C28.68 109.827 28.68 109.646 28.6899 109.465C28.6964 109.284 28.703 109.127 28.703 108.989V104.5C28.703 104.431 28.7063 104.362 28.7161 104.293C28.7227 104.224 28.7194 104.155 28.703 104.086V103.83C28.6866 103.777 28.6767 103.724 28.6767 103.675C28.6767 103.626 28.6669 103.57 28.6504 103.521C28.5288 103.281 28.3054 103.159 27.9801 103.159H21.8911C21.753 103.195 21.6413 103.225 21.5559 103.248C21.4704 103.274 21.3916 103.34 21.3226 103.442C21.2864 103.527 21.2536 103.655 21.2207 103.83V104.086C21.2043 104.171 21.1977 104.27 21.2076 104.382C21.2174 104.493 21.2207 104.592 21.2207 104.677V110.198C21.2207 110.49 21.1681 110.714 21.0663 110.868C21.0137 110.954 20.9052 111.01 20.7442 111.036C20.5799 111.062 20.3992 111.079 20.202 111.088C20.0049 111.098 19.8011 111.098 19.5974 111.088C19.3904 111.079 19.2097 111.075 19.0552 111.075C18.8153 111.075 18.5229 111.079 18.1778 111.088C17.8328 111.098 17.5929 111.049 17.4549 110.947C17.3169 110.842 17.238 110.681 17.2216 110.458C17.2052 110.234 17.1953 110.001 17.1953 109.761V93.4851C17.1953 93.2781 17.2315 93.1138 17.2972 92.9955C17.3662 92.8739 17.4878 92.7885 17.6586 92.7359C17.6948 92.7359 17.7309 92.7326 17.7737 92.7228C17.8164 92.7129 17.8558 92.7096 17.8887 92.7096L17.9018 92.7129Z" fill="white"/>
<path d="M36.9917 92.7129H48.8838C49.0908 92.7129 49.288 92.7227 49.4786 92.7392C49.6659 92.7556 49.8039 92.8246 49.8893 92.9462C49.9255 92.9988 49.9452 93.0579 49.9551 93.1269C49.9649 93.1959 49.9846 93.2649 50.0208 93.3339V93.6165C50.0372 93.7381 50.0405 93.8663 50.0339 94.0043C50.0241 94.1423 50.0208 94.2705 50.0208 94.392C50.0208 94.5301 50.0241 94.6615 50.0339 94.7929C50.0438 94.9211 50.0372 95.046 50.0208 95.1675C50.0043 95.253 49.9945 95.3811 49.9945 95.5553C49.9419 95.7623 49.8565 95.9003 49.7349 95.9693C49.633 96.0383 49.5016 96.0745 49.3471 96.0745H42.407C42.269 96.0745 42.1113 96.0712 41.9306 96.0613C41.7498 96.0515 41.5691 96.0515 41.3884 96.0613C41.2076 96.0712 41.04 96.0876 40.8856 96.1139C40.7312 96.1402 40.6194 96.1796 40.5504 96.2289C40.4288 96.3144 40.3566 96.4393 40.3303 96.6036C40.304 96.7679 40.2908 96.9519 40.2908 97.1589V99.377C40.327 99.515 40.3598 99.63 40.396 99.7253C40.4288 99.8206 40.4913 99.8929 40.5767 99.9454C40.6786 100.014 40.8002 100.054 40.9382 100.06C41.0762 100.07 41.2208 100.074 41.3752 100.074H47.2046C47.3262 100.074 47.4774 100.07 47.6548 100.06C47.8356 100.051 48.0097 100.051 48.1839 100.06C48.3548 100.07 48.5158 100.083 48.6604 100.1C48.8049 100.116 48.9134 100.152 48.9824 100.205C49.0678 100.258 49.127 100.359 49.1631 100.514C49.1993 100.668 49.219 100.836 49.2288 101.017C49.2387 101.197 49.2387 101.381 49.2288 101.572C49.219 101.763 49.2157 101.924 49.2157 102.062V102.423C49.2157 102.545 49.1993 102.647 49.1631 102.732C49.127 102.87 49.0613 102.982 48.9561 103.067C48.8707 103.12 48.7524 103.153 48.6078 103.172C48.4632 103.192 48.2989 103.199 48.1182 103.199C47.9374 103.199 47.7567 103.195 47.576 103.185C47.3952 103.179 47.2441 103.172 47.1258 103.172H42.0949C41.8878 103.172 41.6907 103.169 41.5001 103.159C41.3095 103.149 41.1353 103.159 40.971 103.185C40.8067 103.212 40.6687 103.264 40.5603 103.34C40.4486 103.415 40.3664 103.534 40.3138 103.688C40.2974 103.774 40.2875 103.866 40.2875 103.958V106.652C40.2875 106.859 40.3007 107.043 40.327 107.208C40.3533 107.372 40.4256 107.497 40.5471 107.582C40.5997 107.635 40.6622 107.664 40.741 107.674C40.8166 107.684 40.8987 107.704 40.9842 107.74H41.2438C41.3292 107.756 41.4245 107.763 41.5264 107.753C41.6315 107.746 41.7235 107.74 41.809 107.74H49.5082C49.6363 107.74 49.7546 107.766 49.8565 107.819C49.9945 107.871 50.0898 107.963 50.1391 108.101C50.1719 108.187 50.1949 108.292 50.2048 108.41C50.2147 108.529 50.2179 108.66 50.2179 108.798V109.984C50.2179 110.191 50.2081 110.385 50.1916 110.566C50.1752 110.747 50.0964 110.878 49.9583 110.967C49.8532 111.052 49.7217 111.095 49.5574 111.095H37.4221C37.1822 111.095 36.9719 111.082 36.7912 111.056C36.6105 111.029 36.479 110.947 36.3903 110.809C36.3213 110.707 36.2852 110.572 36.2852 110.408V93.3701C36.2852 93.2157 36.3213 93.0941 36.3903 93.0086C36.4593 92.887 36.5875 92.8016 36.7781 92.749C36.8142 92.7326 36.8471 92.726 36.8832 92.7359C36.9194 92.7457 36.9522 92.7392 36.9851 92.7227L36.9917 92.7129Z" fill="white"/>
<path d="M75.7599 109.866C75.7763 109.935 75.8059 110.02 75.8519 110.122C75.8946 110.227 75.9274 110.333 75.9537 110.444C75.98 110.556 75.9833 110.664 75.9669 110.766C75.9504 110.868 75.8913 110.947 75.7861 111C75.6481 111.085 75.4214 111.121 75.1026 111.105C74.7839 111.088 74.521 111.079 74.3173 111.079H73.1047C72.9667 111.079 72.8419 111.082 72.7301 111.092C72.6184 111.102 72.51 111.088 72.4081 111.052C72.2175 111 72.0795 110.898 71.9941 110.743C71.9086 110.605 71.8429 110.461 71.8002 110.303C71.7575 110.149 71.7016 109.994 71.6326 109.84C71.5472 109.564 71.4552 109.291 71.3631 109.015C71.2679 108.739 71.1693 108.473 71.0674 108.216C71.0148 108.062 70.9688 107.921 70.9261 107.789C70.8834 107.661 70.8341 107.543 70.7848 107.441C70.7322 107.339 70.6566 107.247 70.5515 107.168C70.4496 107.093 70.3116 107.037 70.1375 107.001C70.052 107.001 69.9699 106.997 69.8943 106.987C69.8154 106.981 69.7333 106.974 69.6478 106.974H65.5732C65.2807 106.974 64.9685 106.971 64.6333 106.961C64.2982 106.951 64.0353 107.017 63.848 107.155C63.71 107.257 63.6147 107.395 63.5654 107.566C63.5128 107.737 63.4537 107.911 63.3847 108.082C63.2466 108.374 63.1316 108.68 63.0363 108.998C62.941 109.317 62.8326 109.629 62.7143 109.942C62.6453 110.112 62.5796 110.293 62.5204 110.484C62.4613 110.674 62.3627 110.819 62.2247 110.924C62.1393 110.993 62.0144 111.039 61.8501 111.065C61.6858 111.092 61.505 111.105 61.3079 111.105C61.1107 111.105 60.907 111.102 60.7 111.092C60.4929 111.082 60.3122 111.079 60.1578 111.079C59.9343 111.079 59.6649 111.082 59.3461 111.092C59.0274 111.102 58.8006 111.062 58.6626 110.977C58.5772 110.924 58.5279 110.848 58.5213 110.743C58.5115 110.638 58.5213 110.533 58.5476 110.421C58.5739 110.31 58.6035 110.201 58.6396 110.099C58.6725 109.997 58.7086 109.912 58.7415 109.843C58.9124 109.449 59.0734 109.044 59.218 108.63C59.3626 108.22 59.5137 107.815 59.6682 107.418C59.7372 107.28 59.7897 107.142 59.8226 107.004C59.8587 106.866 59.908 106.728 59.977 106.593C60.1151 106.232 60.2531 105.864 60.3911 105.482C60.5291 105.104 60.6671 104.733 60.8051 104.372C60.9431 104.027 61.0713 103.688 61.1929 103.353C61.3145 103.018 61.4426 102.679 61.5806 102.334C61.9749 101.388 62.3397 100.435 62.6749 99.4722C63.01 98.5094 63.3748 97.5565 63.7724 96.6101C63.8086 96.5247 63.8316 96.4458 63.8513 96.3768C63.8677 96.3078 63.894 96.2322 63.9301 96.1435C64.0681 95.782 64.2062 95.414 64.3409 95.0328C64.4789 94.6549 64.6235 94.2836 64.7812 93.9221C64.8667 93.7348 64.939 93.5409 65.0014 93.3438C65.0605 93.1466 65.169 92.9856 65.3234 92.8673C65.4089 92.8147 65.5206 92.772 65.6586 92.7392C65.6947 92.7227 65.7276 92.7161 65.7605 92.726C65.7933 92.7359 65.8295 92.7293 65.8656 92.7129H68.1363C68.3268 92.7129 68.5174 92.7096 68.7179 92.6997C68.9151 92.6899 69.0761 92.7293 69.1944 92.8147C69.3817 92.9166 69.5065 93.0678 69.569 93.2649C69.6281 93.4621 69.7004 93.6658 69.7891 93.8728C69.9107 94.1653 70.0224 94.4545 70.1243 94.7371C70.2295 95.0197 70.3379 95.3088 70.4595 95.6013C70.4923 95.7064 70.5285 95.8083 70.5614 95.9102C70.5975 96.0153 70.6304 96.1172 70.6632 96.2191C70.8012 96.5641 70.9294 96.9026 71.051 97.2377C71.1726 97.5729 71.3007 97.9147 71.4387 98.2564C71.7838 99.1173 72.1058 99.9849 72.4048 100.862C72.7071 101.74 73.0357 102.607 73.3972 103.468C73.4333 103.537 73.4531 103.603 73.4629 103.662C73.4728 103.721 73.4925 103.787 73.5286 103.856C73.6305 104.132 73.7357 104.405 73.8375 104.681C73.9394 104.957 74.0445 105.233 74.1464 105.505C74.2154 105.643 74.268 105.775 74.3009 105.906C74.337 106.034 74.3797 106.169 74.429 106.307C74.6525 106.859 74.8595 107.408 75.0468 107.957C75.2374 108.506 75.4411 109.048 75.6646 109.583C75.6974 109.636 75.7171 109.682 75.7171 109.725C75.7171 109.767 75.7336 109.817 75.7697 109.866H75.7599ZM69.0794 103.961C69.3028 103.876 69.4047 103.728 69.3882 103.524C69.3718 103.317 69.3192 103.12 69.2338 102.929C69.1976 102.86 69.1812 102.794 69.1812 102.735C69.1812 102.676 69.1648 102.61 69.1286 102.541C68.9052 101.956 68.6982 101.365 68.5109 100.76C68.3236 100.156 68.1067 99.5577 67.8668 98.9563C67.8307 98.8709 67.7978 98.7625 67.7617 98.6343C67.7255 98.5061 67.6861 98.3846 67.6335 98.2728C67.5809 98.1611 67.5218 98.0625 67.4528 97.9771C67.3838 97.8917 67.2983 97.8489 67.1965 97.8489C67.1603 97.8851 67.1274 97.9081 67.0913 97.9245C67.0552 97.9409 67.0223 97.9672 66.9894 98.0034C66.8514 98.1743 66.7528 98.3813 66.6937 98.6212C66.6345 98.861 66.559 99.0943 66.4735 99.3178C66.2665 99.7976 66.0825 100.29 65.9182 100.787C65.7539 101.286 65.5764 101.782 65.3891 102.282C65.3201 102.456 65.261 102.624 65.2084 102.785C65.1558 102.949 65.1065 103.123 65.054 103.314C65.0014 103.452 65.0112 103.606 65.0802 103.777C65.1657 103.899 65.307 103.968 65.5074 103.984C65.7046 104 65.9083 104.01 66.1121 104.01H68.5897C68.7803 104.01 68.9413 103.994 69.0794 103.958V103.961Z" fill="white"/>
<path d="M78.1599 92.7127H90.7487C91.0083 92.7127 91.2351 92.7259 91.4322 92.7522C91.6294 92.7784 91.7641 92.8869 91.8331 93.0742C91.8857 93.1958 91.912 93.3765 91.912 93.6164V94.2342C91.912 94.3557 91.9185 94.4773 91.9383 94.6088C91.9547 94.7369 91.9448 94.8454 91.912 94.9308V95.2397C91.912 95.4631 91.8857 95.6603 91.8331 95.8345C91.7641 96.0053 91.6754 96.1532 91.5637 96.2715C91.4519 96.3931 91.3435 96.5212 91.2416 96.6592C91.1036 96.8498 90.959 97.0306 90.8046 97.2014C90.6501 97.3756 90.5023 97.5531 90.3643 97.7436C90.3281 97.7798 90.292 97.8225 90.2492 97.8718C90.2065 97.9244 90.1671 97.9671 90.1342 98C90.0126 98.1544 89.8911 98.3023 89.7728 98.4403C89.6512 98.5783 89.5296 98.7229 89.4113 98.8773C89.3751 98.9135 89.3456 98.9463 89.3226 98.9825C89.2996 99.0186 89.2667 99.0515 89.2306 99.0843C89.109 99.2388 88.9874 99.3899 88.856 99.5345C88.7278 99.6791 88.6029 99.8303 88.4814 99.9847C88.0837 100.484 87.6763 100.974 87.2557 101.454C86.835 101.933 86.4276 102.426 86.03 102.922C85.9938 102.975 85.9544 103.024 85.9018 103.077L85.7737 103.205C85.5831 103.445 85.3958 103.678 85.2052 103.902C85.0146 104.125 84.8273 104.358 84.6367 104.598C84.5841 104.667 84.5283 104.726 84.4691 104.779C84.41 104.832 84.3607 104.891 84.3278 104.96C84.1372 105.2 83.9368 105.44 83.7199 105.683C83.5063 105.923 83.3026 106.162 83.112 106.406C83.0101 106.544 82.8918 106.672 82.7637 106.793C82.6355 106.915 82.5533 107.069 82.5172 107.257C82.4811 107.395 82.5008 107.49 82.5698 107.539C82.6388 107.592 82.7144 107.635 82.8031 107.667C82.8557 107.667 82.9312 107.684 83.0364 107.72H83.3716C83.4241 107.736 83.4866 107.743 83.5654 107.733C83.641 107.727 83.7166 107.72 83.7856 107.72H91.1365C91.3073 107.72 91.4618 107.727 91.5998 107.733C91.7378 107.743 91.8495 107.779 91.935 107.848C92.0368 107.934 92.1026 108.055 92.1288 108.21C92.1551 108.364 92.1683 108.535 92.1683 108.726V110.119C92.1683 110.273 92.1551 110.428 92.1288 110.582C92.1026 110.737 92.0467 110.848 91.9613 110.917C91.8397 111.003 91.6852 111.052 91.4979 111.059C91.3106 111.065 91.1102 111.072 90.9032 111.072H77.9562C77.782 111.072 77.6046 111.075 77.414 111.085C77.2234 111.095 77.0788 111.055 76.9737 110.97C76.8521 110.901 76.7601 110.756 76.6911 110.533C76.6549 110.411 76.6483 110.283 76.6648 110.145C76.6812 110.007 76.6911 109.869 76.6911 109.731C76.6911 109.439 76.6845 109.113 76.6779 108.752C76.6681 108.39 76.7075 108.098 76.7929 107.874C76.8784 107.684 76.9868 107.523 77.115 107.385C77.2431 107.247 77.368 107.109 77.4896 106.971C77.6604 106.731 77.8379 106.511 78.0186 106.314C78.1994 106.116 78.3768 105.896 78.5477 105.656C78.6003 105.587 78.6561 105.528 78.7153 105.476C78.7744 105.423 78.8237 105.371 78.8566 105.321C78.9946 105.15 79.1227 104.989 79.2443 104.845C79.3626 104.7 79.4941 104.549 79.6321 104.395C79.6682 104.358 79.6978 104.322 79.7241 104.28C79.7504 104.237 79.7799 104.197 79.8128 104.165C80.1381 103.751 80.4799 103.353 80.8315 102.965C81.1831 102.577 81.515 102.17 81.8238 101.739C81.929 101.601 82.0342 101.477 82.1459 101.365C82.2576 101.253 82.366 101.128 82.4679 100.99C82.5008 100.938 82.5435 100.892 82.5961 100.849C82.6486 100.806 82.6914 100.76 82.7242 100.708C82.8622 100.517 83.0167 100.33 83.1876 100.139C83.3584 99.9486 83.5129 99.7514 83.6509 99.5444C83.7199 99.4589 83.7889 99.3867 83.8579 99.3242C83.9269 99.2651 83.9861 99.1994 84.0386 99.1303C84.2785 98.805 84.5315 98.4929 84.801 98.2004C85.0672 97.9079 85.3202 97.5991 85.5634 97.2705C85.6488 97.185 85.7309 97.093 85.8065 96.9977C85.8854 96.9024 85.9478 96.7973 86.0004 96.6757C86.0365 96.6428 86.0661 96.5935 86.0924 96.5344C86.1187 96.4752 86.1121 96.4095 86.0793 96.3405C86.0431 96.2025 85.9511 96.1269 85.7967 96.1072C85.6422 96.0908 85.4779 96.0743 85.307 96.0546H79.4513C79.3297 96.0546 79.1852 96.0579 79.0143 96.0678C78.8434 96.0776 78.6725 96.0809 78.5115 96.0809C78.3505 96.0809 78.1928 96.0743 78.0482 96.0546C77.9036 96.0382 77.7952 96.002 77.7262 95.9495C77.621 95.8805 77.5553 95.7589 77.5191 95.588C77.483 95.4171 77.4633 95.2232 77.4534 95.0064C77.4436 94.7928 77.4436 94.5726 77.4534 94.3492C77.4633 94.1257 77.4666 93.9351 77.4666 93.7807C77.4666 93.6262 77.4699 93.4718 77.4797 93.3174C77.4896 93.1629 77.5257 93.0347 77.5947 92.9296C77.6473 92.8244 77.7656 92.7587 77.9562 92.7226C77.989 92.7062 78.0252 92.6996 78.0581 92.7094C78.0909 92.7193 78.1271 92.7127 78.1599 92.6963V92.7127Z" fill="white"/>
<path d="M95.2367 92.7396H97.4547C97.6453 92.7396 97.826 92.7429 97.9969 92.7528C98.1678 92.7626 98.2992 92.8251 98.3847 92.9466C98.4701 93.0682 98.5194 93.2227 98.526 93.41C98.5358 93.6006 98.5391 93.8076 98.5391 94.0277V109.452C98.5391 109.676 98.5424 109.926 98.5523 110.202C98.5621 110.478 98.5227 110.681 98.4372 110.819C98.3682 110.941 98.2138 111.036 97.9739 111.102C97.8523 111.135 97.7242 111.145 97.5862 111.128C97.4482 111.112 97.3101 111.102 97.1721 111.102H95.6507C95.4601 111.102 95.2859 111.092 95.1216 111.076C94.9573 111.059 94.8259 111.007 94.7207 110.921C94.6353 110.836 94.5827 110.708 94.5663 110.533C94.5499 110.363 94.54 110.182 94.54 109.991V94.5667C94.54 94.3268 94.5367 94.0409 94.5269 93.7156C94.517 93.3903 94.5564 93.1569 94.6419 93.0189C94.7109 92.9171 94.8226 92.8316 94.9771 92.7626C95.0296 92.7626 95.0756 92.7593 95.1184 92.7495C95.1611 92.7396 95.2005 92.7363 95.2334 92.7363L95.2367 92.7396Z" fill="white"/>
<path d="M102.48 92.7127H115.069C115.329 92.7127 115.555 92.7259 115.753 92.7522C115.95 92.7784 116.084 92.8869 116.153 93.0742C116.206 93.1958 116.232 93.3765 116.232 93.6164V94.2342C116.232 94.3557 116.239 94.4773 116.259 94.6088C116.275 94.7369 116.265 94.8454 116.232 94.9308V95.2397C116.232 95.4631 116.206 95.6603 116.153 95.8345C116.084 96.0053 115.996 96.1532 115.884 96.2715C115.772 96.3931 115.664 96.5212 115.562 96.6592C115.424 96.8498 115.279 97.0306 115.125 97.2014C114.97 97.3756 114.823 97.5531 114.685 97.7436C114.648 97.7798 114.612 97.8225 114.57 97.8718C114.527 97.9244 114.487 97.9671 114.455 98C114.333 98.1544 114.211 98.3023 114.093 98.4403C113.971 98.5783 113.85 98.7229 113.732 98.8773C113.695 98.9135 113.666 98.9463 113.643 98.9825C113.62 99.0186 113.587 99.0515 113.551 99.0843C113.429 99.2388 113.308 99.3899 113.176 99.5345C113.048 99.6791 112.923 99.8303 112.802 99.9847C112.404 100.484 111.997 100.974 111.576 101.454C111.155 101.933 110.748 102.426 110.35 102.922C110.314 102.975 110.275 103.024 110.222 103.077C110.17 103.129 110.127 103.172 110.094 103.205C109.903 103.445 109.716 103.678 109.525 103.902C109.335 104.125 109.148 104.358 108.957 104.598C108.904 104.667 108.849 104.726 108.789 104.779C108.73 104.832 108.681 104.891 108.648 104.96C108.458 105.2 108.257 105.44 108.04 105.683C107.827 105.923 107.623 106.162 107.432 106.406C107.33 106.544 107.212 106.672 107.084 106.793C106.956 106.915 106.874 107.069 106.838 107.257C106.801 107.395 106.821 107.49 106.89 107.539C106.959 107.592 107.035 107.635 107.123 107.667C107.176 107.667 107.252 107.684 107.357 107.72H107.692C107.744 107.736 107.807 107.743 107.886 107.733C107.961 107.727 108.037 107.72 108.106 107.72H115.457C115.628 107.72 115.782 107.727 115.92 107.733C116.058 107.743 116.17 107.779 116.255 107.848C116.357 107.934 116.423 108.055 116.449 108.21C116.475 108.364 116.489 108.535 116.489 108.726V110.119C116.489 110.273 116.475 110.428 116.449 110.582C116.423 110.737 116.367 110.848 116.282 110.917C116.16 111.003 116.006 111.052 115.818 111.059C115.631 111.065 115.43 111.072 115.223 111.072H102.276C102.102 111.072 101.925 111.075 101.734 111.085C101.544 111.095 101.399 111.055 101.294 110.97C101.172 110.901 101.08 110.756 101.011 110.533C100.975 110.411 100.969 110.283 100.985 110.145C101.002 110.007 101.011 109.869 101.011 109.731C101.011 109.439 101.005 109.113 100.998 108.752C100.988 108.39 101.028 108.098 101.113 107.874C101.199 107.684 101.307 107.523 101.435 107.385C101.563 107.247 101.688 107.109 101.81 106.971C101.981 106.731 102.158 106.511 102.339 106.314C102.52 106.116 102.697 105.896 102.868 105.656C102.921 105.587 102.976 105.528 103.036 105.476C103.095 105.423 103.144 105.371 103.177 105.321C103.315 105.15 103.443 104.989 103.565 104.845C103.683 104.7 103.814 104.549 103.952 104.395C103.989 104.358 104.018 104.322 104.044 104.28C104.071 104.237 104.1 104.197 104.133 104.165C104.458 103.751 104.8 103.353 105.152 102.965C105.503 102.577 105.835 102.17 106.144 101.739C106.249 101.601 106.354 101.477 106.466 101.365C106.578 101.253 106.686 101.128 106.788 100.99C106.821 100.938 106.864 100.892 106.916 100.849C106.969 100.806 107.012 100.76 107.045 100.708C107.183 100.517 107.337 100.33 107.508 100.139C107.679 99.9486 107.833 99.7514 107.971 99.5444C108.04 99.4589 108.109 99.3867 108.178 99.3242C108.247 99.2651 108.306 99.1994 108.359 99.1303C108.599 98.805 108.852 98.4929 109.121 98.2004C109.387 97.9079 109.641 97.5991 109.884 97.2705C109.969 97.185 110.051 97.093 110.127 96.9977C110.206 96.9024 110.268 96.7973 110.321 96.6757C110.357 96.6428 110.386 96.5935 110.413 96.5344C110.439 96.4752 110.432 96.4095 110.4 96.3405C110.363 96.2025 110.271 96.1269 110.117 96.1072C109.963 96.0908 109.798 96.0743 109.627 96.0546H103.772C103.65 96.0546 103.505 96.0579 103.335 96.0678C103.164 96.0776 102.993 96.0809 102.832 96.0809C102.671 96.0809 102.513 96.0743 102.369 96.0546C102.224 96.0382 102.115 96.002 102.046 95.9495C101.941 95.8805 101.876 95.7589 101.839 95.588C101.803 95.4171 101.784 95.2232 101.774 95.0064C101.764 94.7928 101.764 94.5726 101.774 94.3492C101.784 94.1257 101.787 93.9351 101.787 93.7807C101.787 93.6262 101.79 93.4718 101.8 93.3174C101.81 93.1629 101.846 93.0347 101.915 92.9296C101.968 92.8244 102.086 92.7587 102.276 92.7226C102.309 92.7062 102.345 92.6996 102.378 92.7094C102.411 92.7193 102.447 92.7127 102.48 92.6963V92.7127Z" fill="white"/>
<path d="M119.559 92.7396H121.777C121.968 92.7396 122.148 92.7429 122.319 92.7528C122.49 92.7626 122.622 92.8251 122.707 92.9466C122.792 93.0682 122.842 93.2227 122.848 93.41C122.858 93.6006 122.861 93.8076 122.861 94.0277V109.452C122.861 109.676 122.865 109.926 122.875 110.202C122.884 110.478 122.845 110.681 122.76 110.819C122.691 110.941 122.536 111.036 122.296 111.102C122.175 111.135 122.046 111.145 121.908 111.128C121.77 111.112 121.632 111.102 121.494 111.102H119.973C119.782 111.102 119.608 111.092 119.444 111.076C119.28 111.059 119.148 111.007 119.043 110.921C118.958 110.836 118.905 110.708 118.889 110.533C118.872 110.363 118.862 110.182 118.862 109.991V94.5667C118.862 94.3268 118.859 94.0409 118.849 93.7156C118.839 93.3903 118.879 93.1569 118.964 93.0189C119.033 92.9171 119.145 92.8316 119.299 92.7626C119.352 92.7626 119.398 92.7593 119.441 92.7495C119.483 92.7396 119.523 92.7363 119.556 92.7363L119.559 92.7396Z" fill="white"/>
<path d="M134.362 92.7393H145.478C145.669 92.7393 145.85 92.7491 146.02 92.7655C146.191 92.782 146.323 92.8411 146.408 92.9463C146.477 93.0317 146.523 93.15 146.55 93.2946C146.576 93.4392 146.589 93.6035 146.589 93.7842C146.589 93.9649 146.586 94.1457 146.576 94.3264C146.566 94.5071 146.563 94.6747 146.563 94.8292C146.563 94.9508 146.566 95.0723 146.576 95.1906C146.586 95.3122 146.579 95.424 146.563 95.5258C146.527 95.6113 146.497 95.6934 146.474 95.769C146.448 95.8478 146.402 95.9103 146.333 95.9629C146.195 96.068 145.958 96.114 145.623 96.1042C145.288 96.0976 144.999 96.091 144.759 96.091H139.78C139.504 96.091 139.176 96.0877 138.788 96.0779C138.4 96.068 138.121 96.1173 137.95 96.2192C137.845 96.2882 137.759 96.4163 137.69 96.6069C137.654 96.7285 137.644 96.8829 137.651 97.0702C137.661 97.2608 137.664 97.4219 137.664 97.5599V98.7987C137.664 98.8841 137.661 98.9893 137.651 99.1076C137.641 99.2292 137.648 99.331 137.664 99.4165V99.6991C137.7 99.8535 137.736 99.9817 137.779 100.087C137.822 100.192 137.911 100.268 138.049 100.32C138.134 100.356 138.239 100.376 138.357 100.386C138.476 100.396 138.607 100.399 138.745 100.399H143.31C143.448 100.399 143.605 100.396 143.786 100.386C143.967 100.376 144.147 100.376 144.328 100.386C144.509 100.396 144.673 100.409 144.818 100.425C144.962 100.442 145.071 100.478 145.14 100.527C145.311 100.649 145.393 100.875 145.386 101.211C145.376 101.546 145.373 101.851 145.373 102.127C145.373 102.265 145.376 102.417 145.386 102.578C145.393 102.742 145.38 102.89 145.347 103.028C145.278 103.218 145.183 103.347 145.064 103.416C144.943 103.485 144.713 103.514 144.368 103.508C144.023 103.498 143.74 103.494 143.517 103.494H139.287C138.962 103.494 138.643 103.504 138.334 103.521C138.026 103.537 137.828 103.659 137.743 103.882C137.707 103.935 137.69 103.991 137.69 104.05C137.69 104.109 137.681 104.165 137.664 104.217V109.196C137.664 109.436 137.667 109.735 137.677 110.086C137.687 110.438 137.648 110.694 137.562 110.849C137.51 110.934 137.441 110.99 137.355 111.016C137.27 111.042 137.184 111.072 137.096 111.108C136.974 111.141 136.846 111.151 136.708 111.134C136.57 111.118 136.432 111.108 136.297 111.108H134.802C134.611 111.108 134.437 111.105 134.273 111.095C134.109 111.085 133.977 111.039 133.872 110.954C133.75 110.868 133.688 110.734 133.678 110.553C133.668 110.372 133.665 110.188 133.665 109.997V94.5729C133.665 94.333 133.662 94.0471 133.652 93.7218C133.642 93.3965 133.681 93.1632 133.767 93.0251C133.836 92.9068 133.964 92.8181 134.155 92.7688C134.191 92.7524 134.224 92.7458 134.26 92.7557C134.296 92.7655 134.329 92.759 134.362 92.7425V92.7393Z" fill="white"/>
<path d="M149.633 92.7396H151.851C152.042 92.7396 152.223 92.7429 152.393 92.7528C152.564 92.7626 152.696 92.8251 152.781 92.9466C152.867 93.0682 152.916 93.2227 152.922 93.41C152.932 93.6006 152.936 93.8076 152.936 94.0277V109.452C152.936 109.676 152.939 109.926 152.949 110.202C152.959 110.478 152.919 110.681 152.834 110.819C152.765 110.941 152.61 111.036 152.37 111.102C152.249 111.135 152.121 111.145 151.983 111.128C151.845 111.112 151.707 111.102 151.569 111.102H150.047C149.857 111.102 149.682 111.092 149.518 111.076C149.354 111.059 149.222 111.007 149.117 110.921C149.032 110.836 148.979 110.708 148.963 110.533C148.946 110.363 148.937 110.182 148.937 109.991V94.5667C148.937 94.3268 148.933 94.0409 148.923 93.7156C148.913 93.3903 148.953 93.1569 149.038 93.0189C149.107 92.9171 149.219 92.8316 149.374 92.7626C149.426 92.7626 149.472 92.7593 149.515 92.7495C149.558 92.7396 149.597 92.7363 149.63 92.7363L149.633 92.7396Z" fill="white"/>
<path d="M172.078 110.51C172.111 110.612 172.108 110.707 172.065 110.792C172.022 110.878 171.973 110.94 171.924 110.973C171.818 111.059 171.677 111.098 171.496 111.088C171.316 111.078 171.132 111.075 170.941 111.075H169.522C169.245 111.075 169.006 111.062 168.799 111.036C168.592 111.009 168.437 110.911 168.335 110.74C168.197 110.516 168.122 110.24 168.102 109.915C168.086 109.59 168.043 109.278 167.974 108.985C167.974 108.916 167.971 108.854 167.961 108.791C167.951 108.732 167.948 108.676 167.948 108.624C167.895 108.417 167.872 108.2 167.872 107.966C167.872 107.733 167.856 107.523 167.819 107.335C167.803 107.283 167.793 107.207 167.793 107.102C167.757 106.912 167.727 106.721 167.704 106.521C167.678 106.323 167.639 106.13 167.589 105.939C167.451 105.545 167.287 105.19 167.1 104.881C166.909 104.572 166.643 104.339 166.301 104.184C166.216 104.148 166.127 104.125 166.042 104.105C165.956 104.089 165.861 104.063 165.759 104.03C165.45 103.925 165.092 103.875 164.688 103.875H161.372C161.234 103.911 161.113 103.934 161.011 103.951C160.906 103.967 160.82 104.02 160.751 104.105C160.613 104.279 160.554 104.546 160.57 104.904C160.587 105.262 160.597 105.591 160.597 105.883V109.186C160.597 109.324 160.593 109.465 160.584 109.613C160.574 109.757 160.57 109.902 160.57 110.04V110.414C160.57 110.526 160.554 110.625 160.518 110.71C160.465 110.865 160.363 110.967 160.209 111.019C160.123 111.055 160.018 111.072 159.9 111.072H158.352C158.076 111.072 157.784 111.075 157.475 111.085C157.166 111.095 156.933 111.039 156.778 110.917C156.64 110.832 156.571 110.671 156.571 110.441V94.0763C156.571 93.8857 156.568 93.6886 156.558 93.4816C156.548 93.2745 156.588 93.1102 156.673 92.9919C156.742 92.8868 156.87 92.8014 157.061 92.7323C157.097 92.7159 157.133 92.7093 157.176 92.7192C157.219 92.7291 157.258 92.7225 157.291 92.7061H166.061C166.337 92.7061 166.6 92.7093 166.847 92.7192C167.096 92.7291 167.333 92.7586 167.556 92.8112C167.642 92.8474 167.731 92.8638 167.826 92.8638C167.921 92.8638 168.01 92.8802 168.099 92.9164C168.22 92.9525 168.339 92.9854 168.46 93.0182C168.582 93.0544 168.7 93.0971 168.822 93.1464C169.252 93.337 169.646 93.567 170.008 93.843C170.369 94.119 170.668 94.4378 170.912 94.796C170.981 94.8814 171.036 94.9734 171.079 95.0654C171.122 95.1607 171.178 95.2494 171.247 95.3382C171.385 95.5781 171.487 95.8278 171.556 96.0841C171.625 96.3437 171.7 96.6263 171.789 96.9352C171.805 97.0042 171.812 97.0732 171.802 97.1422C171.792 97.2112 171.805 97.2802 171.841 97.3492V97.5825C171.878 97.7205 171.884 97.8881 171.868 98.0853C171.851 98.2825 171.825 98.4435 171.789 98.5618C171.753 98.6998 171.736 98.8246 171.736 98.9364C171.736 99.0481 171.72 99.1631 171.684 99.2847C171.598 99.541 171.513 99.7875 171.424 100.021C171.335 100.254 171.227 100.471 171.089 100.678C171.053 100.731 171.013 100.786 170.961 100.846C170.908 100.905 170.866 100.961 170.833 101.013C170.78 101.082 170.724 101.151 170.665 101.22C170.606 101.289 170.54 101.348 170.471 101.401C170.366 101.486 170.264 101.572 170.162 101.66C170.06 101.746 169.949 101.831 169.827 101.917C169.758 101.969 169.689 102.025 169.62 102.084C169.551 102.147 169.499 102.219 169.466 102.305C169.43 102.41 169.449 102.495 169.518 102.564C169.587 102.633 169.646 102.686 169.699 102.719C169.87 102.857 170.044 102.995 170.215 103.133C170.386 103.271 170.534 103.435 170.655 103.622C170.862 103.915 171.023 104.217 171.145 104.526C171.266 104.835 171.378 105.19 171.48 105.584C171.516 105.738 171.536 105.903 171.546 106.074C171.552 106.248 171.575 106.409 171.611 106.563C171.611 106.665 171.615 106.767 171.625 106.859C171.634 106.954 171.638 107.053 171.638 107.155C171.654 107.224 171.661 107.296 171.651 107.375C171.641 107.454 171.648 107.536 171.664 107.621C171.68 107.69 171.687 107.759 171.677 107.828C171.667 107.897 171.674 107.973 171.69 108.062C171.723 108.233 171.743 108.413 171.743 108.604C171.743 108.794 171.759 108.975 171.795 109.146L171.874 109.609C171.907 109.764 171.943 109.918 171.976 110.073C172.012 110.227 172.045 110.375 172.081 110.513L172.078 110.51ZM167.819 98.8772C167.856 98.6866 167.859 98.4566 167.833 98.1806C167.806 97.9046 167.777 97.7008 167.744 97.5628C167.708 97.4938 167.691 97.4347 167.691 97.3821C167.691 97.3295 167.675 97.2802 167.639 97.2276C167.432 96.6953 167.054 96.3076 166.505 96.0677C166.212 95.9297 165.877 95.8541 165.499 95.8344C165.122 95.8179 164.724 95.8081 164.313 95.8081H161.32C161.283 95.8442 161.251 95.8541 161.218 95.8475C161.182 95.8376 161.149 95.8344 161.113 95.8344C160.906 95.8869 160.768 95.9724 160.699 96.0907C160.613 96.2287 160.574 96.4061 160.584 96.6197C160.593 96.8333 160.597 97.0436 160.597 97.2506V100.267C160.597 100.474 160.639 100.639 160.725 100.757C160.794 100.859 160.906 100.928 161.06 100.964C161.214 101 161.385 101.023 161.576 101.039C161.763 101.056 161.964 101.062 162.167 101.053C162.374 101.043 162.555 101.039 162.71 101.039H164.231C164.353 101.039 164.481 101.043 164.619 101.053C164.757 101.062 164.875 101.049 164.98 101.013H165.315C165.453 100.98 165.588 100.961 165.716 100.961C165.844 100.961 165.969 100.944 166.091 100.908C166.383 100.823 166.64 100.711 166.863 100.573C167.087 100.435 167.277 100.254 167.432 100.031C167.537 99.8762 167.612 99.7053 167.665 99.5147C167.717 99.3241 167.767 99.1105 167.819 98.8707V98.8772Z" fill="white"/>
<path d="M175.945 92.7129H180.161C180.444 92.7129 180.664 92.772 180.818 92.8936C180.94 92.9791 181.025 93.1039 181.078 93.2682C181.13 93.4325 181.18 93.5903 181.232 93.7447C181.334 94.0207 181.436 94.3 181.528 94.5826C181.623 94.8652 181.722 95.1544 181.824 95.4469C182.218 96.5313 182.593 97.6321 182.944 98.7493C183.296 99.8666 183.68 100.977 184.091 102.078C184.229 102.423 184.351 102.775 184.453 103.136C184.558 103.498 184.676 103.849 184.814 104.194C184.85 104.28 184.883 104.365 184.919 104.451C184.952 104.536 185.015 104.605 185.1 104.658C185.133 104.674 185.169 104.694 185.202 104.71C185.238 104.727 185.271 104.72 185.304 104.684C185.442 104.651 185.537 104.546 185.586 104.375C185.636 104.204 185.688 104.05 185.741 103.912C185.879 103.517 186.004 103.126 186.115 102.739C186.227 102.351 186.352 101.96 186.49 101.565C186.835 100.517 187.177 99.4624 187.522 98.4076C187.867 97.3528 188.209 96.2881 188.554 95.2201C188.639 94.9441 188.725 94.6746 188.81 94.4085C188.895 94.1423 188.981 93.8696 189.07 93.5968C189.122 93.4588 189.171 93.3208 189.224 93.1861C189.277 93.0513 189.369 92.9363 189.507 92.8509C189.612 92.7655 189.743 92.7227 189.907 92.7227H194.344C194.508 92.7227 194.633 92.7589 194.718 92.8279C194.906 92.9298 195.001 93.1236 195.001 93.4062V109.978C195.001 110.168 194.998 110.352 194.988 110.533C194.978 110.714 194.922 110.845 194.82 110.934C194.718 111.023 194.587 111.069 194.432 111.075C194.278 111.082 194.107 111.088 193.916 111.088H191.981C191.843 111.052 191.728 111.029 191.633 111.01C191.537 110.993 191.455 110.934 191.386 110.829C191.317 110.743 191.281 110.632 191.281 110.494V102.111C191.265 101.871 191.255 101.641 191.255 101.427V100.77C191.255 100.632 191.258 100.491 191.268 100.343C191.274 100.198 191.261 100.054 191.228 99.9159C191.192 99.7976 191.176 99.6661 191.176 99.5281C191.176 99.3901 191.123 99.3047 191.021 99.2685C190.969 99.2521 190.929 99.2587 190.906 99.2948C190.88 99.331 190.857 99.354 190.841 99.3704C190.772 99.4394 190.716 99.5215 190.673 99.6168C190.63 99.7121 190.591 99.8009 190.558 99.8896C190.456 100.146 190.354 100.415 190.262 100.688C190.167 100.964 190.069 101.24 189.967 101.513C189.931 101.615 189.901 101.72 189.875 101.822C189.848 101.924 189.809 102.029 189.76 102.131C189.674 102.354 189.595 102.578 189.526 102.801C189.457 103.024 189.382 103.248 189.293 103.471C189.257 103.524 189.24 103.58 189.24 103.639C189.24 103.698 189.224 103.754 189.188 103.807C189.119 103.961 189.063 104.125 189.02 104.296C188.978 104.47 188.912 104.641 188.826 104.812C188.757 104.967 188.702 105.131 188.659 105.302C188.616 105.473 188.56 105.647 188.491 105.818C188.284 106.317 188.103 106.82 187.949 107.326C187.795 107.832 187.62 108.335 187.433 108.834C187.397 108.887 187.381 108.939 187.381 108.989C187.381 109.038 187.364 109.094 187.328 109.143C187.243 109.334 187.174 109.524 187.121 109.721C187.068 109.919 186.999 110.112 186.914 110.303C186.861 110.425 186.815 110.536 186.773 110.638C186.73 110.743 186.664 110.829 186.579 110.898C186.493 110.967 186.408 111.006 186.322 111.013C186.237 111.023 186.132 111.042 186.014 111.079H185.422C185.3 111.079 185.159 111.082 184.995 111.092C184.831 111.102 184.67 111.105 184.505 111.105C184.341 111.105 184.19 111.095 184.055 111.079C183.917 111.062 183.815 111.026 183.746 110.973C183.608 110.888 183.513 110.789 183.464 110.678C183.411 110.566 183.352 110.431 183.283 110.277C183.197 110.07 183.122 109.859 183.063 109.646C183.004 109.432 182.928 109.219 182.843 109.015L182.764 108.782C182.678 108.575 182.599 108.354 182.53 108.124C182.461 107.891 182.382 107.674 182.297 107.467C182.281 107.415 182.267 107.369 182.258 107.326C182.248 107.283 182.235 107.234 182.218 107.185C182.133 107.03 182.064 106.866 182.011 106.695C181.959 106.524 181.899 106.35 181.83 106.179C181.814 106.143 181.801 106.1 181.791 106.051C181.781 105.998 181.768 105.956 181.752 105.923C181.683 105.752 181.627 105.578 181.584 105.407C181.541 105.236 181.476 105.062 181.39 104.891C181.252 104.546 181.124 104.184 181.002 103.807C180.881 103.429 180.753 103.057 180.615 102.696C180.46 102.265 180.312 101.828 180.178 101.381C180.04 100.935 179.875 100.504 179.688 100.09C179.602 99.8501 179.507 99.653 179.405 99.4985C179.369 99.4624 179.336 99.4328 179.3 99.4065C179.264 99.3803 179.225 99.3868 179.172 99.4197C179.087 99.4723 179.044 99.5577 179.044 99.6793C179.044 99.8009 179.027 99.9192 178.991 100.041C178.955 100.162 178.945 100.284 178.952 100.415C178.962 100.543 178.965 100.678 178.965 100.816V101.385C178.965 101.575 178.955 101.763 178.939 101.953V110.49C178.939 110.628 178.903 110.74 178.837 110.826C178.768 110.947 178.64 111.023 178.449 111.059C178.328 111.095 178.199 111.105 178.061 111.098C177.923 111.092 177.785 111.085 177.651 111.085H176.31C176.119 111.085 175.948 111.082 175.794 111.072C175.64 111.062 175.511 111.016 175.406 110.931C175.301 110.845 175.242 110.71 175.225 110.53C175.209 110.349 175.199 110.165 175.199 109.974V93.6987C175.199 93.5607 175.209 93.426 175.225 93.2978C175.242 93.1696 175.268 93.0711 175.301 93.0021C175.37 92.8805 175.508 92.795 175.715 92.7425C175.751 92.726 175.784 92.7195 175.82 92.7293C175.853 92.7392 175.889 92.7326 175.922 92.7162L175.945 92.7129Z" fill="white"/>
</svg>
