<svg width="99" height="57" viewBox="0 0 99 57" fill="none" xmlns="http://www.w3.org/2000/svg">
<path d="M69.5959 40.4068L66.9266 34.9397L64.329 29.6212L63.1612 27.2305L60.5637 21.9119L52.4624 5.32064L50.0216 0.324068C49.8114 -0.108023 49.1942 -0.108023 48.984 0.324068L46.9102 4.5699C46.6784 5.0437 46.6784 5.59925 46.9102 6.07305L49.5028 11.3816L54.6445 21.9119L57.2421 27.2305L58.4099 29.6212L61.0074 34.9397L63.7067 40.4702C63.9286 40.9223 64.3874 41.2109 64.8912 41.2109H69.0937C69.5058 41.2109 69.776 40.7788 69.5942 40.4084L69.5959 40.4068Z" fill="white"/>
<path d="M58.3456 34.9396L56.2669 30.6821C55.9499 30.0332 55.2909 29.6211 54.5686 29.6211H35.8569C35.1345 29.6211 34.4755 30.0332 34.1585 30.6821L32.0798 34.9396L29.4105 40.4067C29.2304 40.777 29.499 41.2091 29.911 41.2091H34.1135C34.6173 41.2091 35.0778 40.9222 35.298 40.4684L37.722 35.5052C37.8905 35.1582 38.2425 34.9396 38.6279 34.9396H51.7975C52.1829 34.9396 52.5349 35.1599 52.7034 35.5052L55.1275 40.4684C55.3493 40.9205 55.8081 41.2091 56.312 41.2091H60.5127C60.9248 41.2091 61.1951 40.777 61.0132 40.4067L58.3439 34.9396H58.3456Z" fill="white"/>
<path d="M36.9835 27.2304H53.443C53.9686 27.2304 54.3122 26.6798 54.082 26.2077L53.5231 25.0632L52.4888 22.9428C52.1801 22.3122 51.5412 21.9118 50.8388 21.9118H45.1883C44.8062 21.9118 44.5576 21.5114 44.7245 21.1694L47.7808 14.9116C48.0294 14.4028 48.0294 13.8088 47.7808 13.3L45.7338 9.10922C45.5219 8.67713 44.9063 8.67713 44.6961 9.10922L38.4433 21.9118L36.3462 26.206C36.116 26.6781 36.4597 27.2287 36.9852 27.2287L36.9835 27.2304Z" fill="white"/>
<path d="M5.59383 47.0704H6.93014C7.04358 47.0704 7.15536 47.0721 7.2638 47.0771C7.37224 47.0821 7.46233 47.1055 7.5324 47.1488C7.55909 47.1672 7.57911 47.1956 7.59079 47.2339C7.60413 47.274 7.61414 47.3157 7.62415 47.3591V47.4241C7.6325 47.4592 7.6375 47.4992 7.6375 47.5426V48.1849C7.6375 48.2466 7.63917 48.305 7.64417 48.3617C7.64918 48.4184 7.64251 48.4735 7.62415 48.5252C7.58078 48.6737 7.49403 48.7521 7.36223 48.7604C7.2321 48.7688 7.07361 48.7738 6.8901 48.7738H5.55379C5.37862 48.7738 5.22847 48.7804 5.10168 48.7938C4.97489 48.8071 4.8898 48.8872 4.84643 49.0357C4.83809 49.0791 4.83809 49.1191 4.84643 49.1542C4.85477 49.1892 4.85143 49.2276 4.83308 49.2726C4.82474 49.326 4.8214 49.3844 4.82641 49.4494C4.82974 49.5145 4.83308 49.5746 4.83308 49.6263V55.794C4.83308 55.9341 4.82641 56.0543 4.81306 56.1544C4.79971 56.2545 4.74466 56.3262 4.64957 56.3696C4.58784 56.3879 4.51777 56.3963 4.43936 56.3963H3.3266C3.22984 56.3963 3.14142 56.3913 3.058 56.3829C2.97459 56.3746 2.91119 56.3429 2.86782 56.2912C2.82444 56.2211 2.80275 56.1327 2.80275 56.0226V49.6246C2.80275 49.5629 2.80442 49.5012 2.80943 49.4344C2.81276 49.3694 2.80609 49.311 2.78941 49.2576C2.78106 49.2142 2.78106 49.1742 2.78941 49.1391C2.79775 49.1041 2.79274 49.0691 2.77606 49.034C2.73268 48.8856 2.6426 48.8055 2.50746 48.7921C2.37233 48.7788 2.21217 48.7721 2.02866 48.7721H0.810796C0.714035 48.7721 0.607263 48.7738 0.490482 48.7788C0.372032 48.7838 0.278607 48.7771 0.208538 48.7588C0.138469 48.7321 0.0867519 48.6937 0.0517175 48.6403C0.0250246 48.5969 0.0100098 48.5402 0.00667322 48.4701C0.00166831 48.4001 0 48.33 0 48.2599V47.6176C0 47.5042 0.00667322 47.4041 0.0200197 47.3157C0.0333661 47.2289 0.0750737 47.1639 0.143474 47.1188C0.170167 47.1005 0.21688 47.0838 0.286948 47.0654H5.59049L5.59383 47.0704Z" fill="white"/>
<path d="M9.08915 47.07H10.1368C10.2853 47.07 10.4138 47.0767 10.5239 47.09C10.6323 47.1034 10.7091 47.1701 10.7525 47.2936C10.7708 47.3369 10.7791 47.3836 10.7791 47.4303V49.6108C10.7791 49.7593 10.7741 49.9278 10.7658 50.1147C10.7575 50.3032 10.7875 50.445 10.8576 50.5401C10.9009 50.5935 10.951 50.6218 11.0077 50.6252C11.0644 50.6302 11.1278 50.6402 11.1979 50.6585H13.712C13.8688 50.6585 14.0307 50.6568 14.1958 50.6518C14.361 50.6468 14.4744 50.5935 14.5362 50.4884C14.5795 50.4099 14.5979 50.2915 14.5879 50.1347C14.5779 49.9779 14.5745 49.8377 14.5745 49.7159V48.0143C14.5745 47.8825 14.5712 47.7306 14.5679 47.5555C14.5629 47.3803 14.5912 47.2585 14.653 47.1884C14.6796 47.1451 14.733 47.115 14.8164 47.0967C14.8999 47.0783 14.9933 47.0683 15.0984 47.0633C15.2035 47.0583 15.3086 47.0583 15.412 47.0633C15.5171 47.0683 15.6089 47.07 15.6873 47.07C15.8358 47.07 15.9909 47.0683 16.1528 47.0633C16.3146 47.0583 16.4347 47.0917 16.5131 47.1618C16.5748 47.2051 16.6049 47.2769 16.6049 47.3786V56.0672C16.6049 56.1806 16.5748 56.259 16.5131 56.3024C16.4347 56.3725 16.3096 56.4058 16.1394 56.4008C15.9692 56.3958 15.8091 56.3942 15.6606 56.3942C15.5822 56.3942 15.4921 56.3958 15.392 56.4008C15.2919 56.4058 15.1901 56.4058 15.09 56.4008C14.9899 56.3958 14.8982 56.3875 14.8148 56.3741C14.7314 56.3608 14.678 56.3324 14.6513 56.289C14.6246 56.254 14.6046 56.1956 14.5929 56.1122C14.5795 56.0288 14.5712 55.942 14.5662 55.8503C14.5612 55.7585 14.5612 55.6668 14.5662 55.575C14.5695 55.4833 14.5729 55.4032 14.5729 55.3331V53.0542C14.5729 53.0192 14.5745 52.9841 14.5795 52.9491C14.5829 52.9141 14.5812 52.879 14.5729 52.844V52.7139C14.5645 52.6872 14.5595 52.6605 14.5595 52.6355C14.5595 52.6104 14.5545 52.5821 14.5462 52.5571C14.4845 52.4353 14.371 52.3735 14.2058 52.3735H11.1145C11.0444 52.3919 10.9877 52.4069 10.9443 52.4186C10.9009 52.4319 10.8609 52.4653 10.8259 52.517C10.8075 52.5604 10.7908 52.6255 10.7741 52.7139V52.844C10.7658 52.8874 10.7625 52.9374 10.7675 52.9941C10.7725 53.0509 10.7741 53.1009 10.7741 53.1443V55.947C10.7741 56.0955 10.7474 56.209 10.6957 56.2874C10.669 56.3308 10.614 56.3591 10.5322 56.3725C10.4488 56.3858 10.3571 56.3942 10.257 56.3992C10.1569 56.4042 10.0534 56.4042 9.95 56.3992C9.8449 56.3942 9.75314 56.3925 9.67473 56.3925C9.55294 56.3925 9.40446 56.3942 9.22929 56.3992C9.05412 56.4042 8.93233 56.3791 8.86226 56.3274C8.7922 56.274 8.75216 56.1923 8.74381 56.0788C8.73547 55.9654 8.73047 55.8469 8.73047 55.7252V47.462C8.73047 47.3569 8.74882 47.2735 8.78219 47.2135C8.81722 47.1517 8.87895 47.1084 8.9657 47.0817C8.98405 47.0817 9.0024 47.08 9.02409 47.075C9.04578 47.07 9.0658 47.0683 9.08248 47.0683L9.08915 47.07Z" fill="white"/>
<path d="M18.7806 47.0703H24.8182C24.9233 47.0703 25.0234 47.0753 25.1201 47.0837C25.2152 47.092 25.2853 47.127 25.3287 47.1888C25.347 47.2155 25.357 47.2455 25.362 47.2805C25.367 47.3155 25.377 47.3506 25.3954 47.3856V47.5291C25.4037 47.5908 25.4054 47.6559 25.4021 47.726C25.3971 47.796 25.3954 47.8611 25.3954 47.9228C25.3954 47.9929 25.3971 48.0596 25.4021 48.1263C25.4071 48.1914 25.4037 48.2548 25.3954 48.3165C25.387 48.3599 25.382 48.425 25.382 48.5134C25.3554 48.6185 25.312 48.6886 25.2502 48.7236C25.1985 48.7586 25.1318 48.777 25.0534 48.777H21.5299C21.4599 48.777 21.3798 48.7753 21.288 48.7703C21.1963 48.7653 21.1045 48.7653 21.0128 48.7703C20.921 48.7753 20.8359 48.7837 20.7575 48.797C20.6791 48.8104 20.6224 48.8304 20.5873 48.8554C20.5256 48.8988 20.4889 48.9622 20.4756 49.0456C20.4622 49.129 20.4555 49.2224 20.4555 49.3275V50.4536C20.4739 50.5237 20.4906 50.5821 20.5089 50.6305C20.5256 50.6789 20.5573 50.7156 20.6007 50.7422C20.6524 50.7773 20.7141 50.7973 20.7842 50.8006C20.8543 50.8056 20.9277 50.8073 21.0061 50.8073H23.9657C24.0274 50.8073 24.1041 50.8056 24.1942 50.8006C24.286 50.7956 24.3744 50.7956 24.4628 50.8006C24.5496 50.8056 24.6313 50.8123 24.7047 50.8207C24.7781 50.829 24.8332 50.8474 24.8682 50.874C24.9116 50.9007 24.9416 50.9525 24.96 51.0309C24.9783 51.1093 24.9883 51.1944 24.9933 51.2861C24.9983 51.3779 24.9983 51.4713 24.9933 51.5681C24.9883 51.6648 24.9867 51.7466 24.9867 51.8166V52.0002C24.9867 52.0619 24.9783 52.1136 24.96 52.157C24.9416 52.227 24.9082 52.2838 24.8549 52.3271C24.8115 52.3538 24.7514 52.3705 24.678 52.3805C24.6046 52.3905 24.5212 52.3939 24.4294 52.3939C24.3377 52.3939 24.2459 52.3922 24.1542 52.3872C24.0624 52.3839 23.9857 52.3805 23.9256 52.3805H21.3714C21.2663 52.3805 21.1662 52.3789 21.0695 52.3739C20.9727 52.3688 20.8843 52.3739 20.8009 52.3872C20.7175 52.4005 20.6474 52.4272 20.5923 52.4656C20.5356 52.504 20.4939 52.564 20.4672 52.6425C20.4589 52.6858 20.4539 52.7325 20.4539 52.7792V54.1473C20.4539 54.2524 20.4605 54.3458 20.4739 54.4292C20.4872 54.5126 20.5239 54.576 20.5857 54.6194C20.6124 54.6461 20.6441 54.6611 20.6841 54.6661C20.7225 54.6711 20.7642 54.6811 20.8076 54.6995H20.9393C20.9827 54.7078 21.0311 54.7111 21.0828 54.7061C21.1362 54.7028 21.1829 54.6995 21.2263 54.6995H25.1351C25.2002 54.6995 25.2603 54.7128 25.312 54.7395C25.382 54.7662 25.4304 54.8129 25.4554 54.883C25.4721 54.9264 25.4838 54.9797 25.4888 55.0398C25.4938 55.0999 25.4955 55.1666 25.4955 55.2367V55.8389C25.4955 55.944 25.4905 56.0425 25.4821 56.1342C25.4738 56.226 25.4338 56.2927 25.3637 56.3377C25.3103 56.3811 25.2436 56.4028 25.1602 56.4028H18.9991C18.8773 56.4028 18.7705 56.3961 18.6788 56.3828C18.587 56.3694 18.5203 56.3277 18.4753 56.2577C18.4402 56.2059 18.4219 56.1375 18.4219 56.0541V47.404C18.4219 47.3256 18.4402 47.2638 18.4753 47.2205C18.5103 47.1587 18.5754 47.1154 18.6721 47.0887C18.6905 47.0803 18.7072 47.077 18.7255 47.082C18.7439 47.087 18.7605 47.0837 18.7772 47.0753L18.7806 47.0703Z" fill="white"/>
<path d="M38.4628 55.7785C38.4712 55.8135 38.4862 55.8569 38.5095 55.9086C38.5312 55.962 38.5479 56.0154 38.5612 56.0721C38.5746 56.1288 38.5763 56.1839 38.5679 56.2356C38.5596 56.2873 38.5295 56.3273 38.4762 56.354C38.4061 56.3974 38.291 56.4158 38.1292 56.4074C37.9673 56.3991 37.8339 56.3941 37.7304 56.3941H37.1148C37.0448 56.3941 36.9814 56.3958 36.9246 56.4008C36.8679 56.4058 36.8129 56.3991 36.7611 56.3807C36.6644 56.354 36.5943 56.3023 36.5509 56.2239C36.5076 56.1538 36.4742 56.0804 36.4525 56.0004C36.4308 55.922 36.4025 55.8435 36.3674 55.7651C36.324 55.625 36.2773 55.4865 36.2306 55.3464C36.1822 55.2062 36.1322 55.0711 36.0805 54.941C36.0538 54.8626 36.0304 54.7908 36.0087 54.7241C35.9871 54.659 35.962 54.599 35.937 54.5473C35.9103 54.4955 35.8719 54.4488 35.8186 54.4088C35.7668 54.3704 35.6968 54.3421 35.6083 54.3237C35.565 54.3237 35.5233 54.322 35.4849 54.317C35.4449 54.3137 35.4031 54.3104 35.3598 54.3104H33.2911C33.1426 54.3104 32.9841 54.3087 32.8139 54.3037C32.6438 54.2987 32.5103 54.3321 32.4152 54.4021C32.3451 54.4538 32.2968 54.5239 32.2717 54.6107C32.245 54.6974 32.215 54.7858 32.18 54.8726C32.1099 55.0211 32.0515 55.1762 32.0031 55.338C31.9548 55.4999 31.8997 55.6584 31.8396 55.8168C31.8046 55.9036 31.7712 55.9954 31.7412 56.0921C31.7112 56.1889 31.6611 56.2623 31.5911 56.3157C31.5477 56.3507 31.4843 56.3741 31.4009 56.3874C31.3175 56.4008 31.2257 56.4074 31.1256 56.4074C31.0255 56.4074 30.9221 56.4058 30.817 56.4008C30.7119 56.3958 30.6201 56.3941 30.5417 56.3941C30.4283 56.3941 30.2915 56.3958 30.1296 56.4008C29.9678 56.4058 29.8527 56.3857 29.7826 56.3424C29.7392 56.3157 29.7142 56.2773 29.7109 56.2239C29.7059 56.1705 29.7109 56.1171 29.7242 56.0604C29.7376 56.0037 29.7526 55.9486 29.7709 55.8969C29.7876 55.8452 29.806 55.8018 29.8227 55.7668C29.9094 55.5666 29.9912 55.3614 30.0646 55.1512C30.138 54.9427 30.2147 54.7375 30.2931 54.5356C30.3282 54.4655 30.3549 54.3955 30.3715 54.3254C30.3899 54.2553 30.4149 54.1852 30.4499 54.1168C30.52 53.9333 30.5901 53.7465 30.6602 53.553C30.7302 53.3611 30.8003 53.1726 30.8704 52.9891C30.9404 52.8139 31.0055 52.6421 31.0672 52.4719C31.1289 52.3017 31.194 52.1299 31.2641 51.9547C31.4643 51.4743 31.6495 50.9904 31.8196 50.5016C31.9898 50.0128 32.175 49.529 32.3768 49.0485C32.3952 49.0052 32.4069 48.9651 32.4169 48.9301C32.4252 48.8951 32.4386 48.8567 32.4569 48.8116C32.527 48.6281 32.5971 48.4413 32.6655 48.2477C32.7355 48.0559 32.8089 47.8674 32.889 47.6839C32.9324 47.5888 32.9691 47.4903 33.0008 47.3902C33.0308 47.2901 33.0859 47.2084 33.1643 47.1483C33.2077 47.1216 33.2644 47.1 33.3344 47.0833C33.3528 47.0749 33.3695 47.0716 33.3862 47.0766C33.4028 47.0816 33.4212 47.0783 33.4395 47.0699H34.5923C34.6891 47.0699 34.7859 47.0683 34.8876 47.0633C34.9877 47.0582 35.0695 47.0783 35.1295 47.1216C35.2246 47.1734 35.288 47.2501 35.3197 47.3502C35.3498 47.4503 35.3865 47.5537 35.4315 47.6588C35.4932 47.8073 35.55 47.9541 35.6017 48.0976C35.6551 48.2411 35.7101 48.3879 35.7718 48.5364C35.7885 48.5897 35.8069 48.6415 35.8236 48.6932C35.8419 48.7466 35.8586 48.7983 35.8753 48.85C35.9453 49.0252 36.0104 49.197 36.0721 49.3672C36.1339 49.5373 36.1989 49.7109 36.269 49.8844C36.4442 50.3215 36.6077 50.7619 36.7595 51.2073C36.913 51.6528 37.0798 52.0932 37.2633 52.5303C37.2817 52.5653 37.2917 52.5987 37.2967 52.6287C37.3017 52.6587 37.3117 52.6921 37.33 52.7271C37.3818 52.8673 37.4351 53.0058 37.4869 53.1459C37.5386 53.286 37.592 53.4262 37.6437 53.5646C37.6787 53.6347 37.7054 53.7014 37.7221 53.7682C37.7404 53.8332 37.7621 53.9016 37.7872 53.9717C37.9006 54.252 38.0057 54.5306 38.1008 54.8092C38.1976 55.0878 38.301 55.3631 38.4144 55.635C38.4311 55.6617 38.4411 55.6851 38.4411 55.7067C38.4411 55.7284 38.4495 55.7535 38.4678 55.7785H38.4628ZM35.0712 52.7805C35.1846 52.7372 35.2363 52.6621 35.228 52.5586C35.2196 52.4535 35.1929 52.3534 35.1496 52.2567C35.1312 52.2217 35.1229 52.1883 35.1229 52.1583C35.1229 52.1282 35.1145 52.0949 35.0962 52.0598C34.9827 51.7629 34.8776 51.4626 34.7825 51.1556C34.6874 50.8486 34.5773 50.545 34.4555 50.2397C34.4372 50.1963 34.4205 50.1413 34.4022 50.0762C34.3838 50.0111 34.3638 49.9494 34.3371 49.8927C34.3104 49.836 34.2804 49.7859 34.2453 49.7425C34.2103 49.6992 34.1669 49.6775 34.1152 49.6775C34.0969 49.6958 34.0802 49.7075 34.0618 49.7159C34.0435 49.7242 34.0268 49.7375 34.0101 49.7559C33.94 49.8426 33.89 49.9477 33.86 50.0695C33.8299 50.1913 33.7916 50.3098 33.7482 50.4232C33.6431 50.6668 33.5497 50.917 33.4662 51.1689C33.3828 51.4225 33.2927 51.6744 33.1976 51.928C33.1626 52.0165 33.1326 52.1015 33.1059 52.1833C33.0792 52.2667 33.0542 52.3551 33.0275 52.4519C33.0008 52.5219 33.0058 52.6004 33.0408 52.6871C33.0842 52.7488 33.1559 52.7839 33.2577 52.7922C33.3578 52.8006 33.4612 52.8056 33.5647 52.8056H34.8226C34.9193 52.8056 35.0011 52.7972 35.0712 52.7789V52.7805Z" fill="white"/>
<path d="M39.6814 47.0699H46.0727C46.2044 47.0699 46.3196 47.0765 46.4197 47.0899C46.5198 47.1032 46.5882 47.1583 46.6232 47.2534C46.6499 47.3151 46.6632 47.4069 46.6632 47.5287V47.8423C46.6632 47.904 46.6666 47.9657 46.6766 48.0325C46.6849 48.0975 46.6799 48.1526 46.6632 48.196V48.3528C46.6632 48.4662 46.6499 48.5663 46.6232 48.6548C46.5882 48.7415 46.5431 48.8166 46.4864 48.8766C46.4297 48.9384 46.3746 49.0034 46.3229 49.0735C46.2528 49.1703 46.1794 49.262 46.101 49.3488C46.0226 49.4372 45.9475 49.5273 45.8775 49.624C45.8591 49.6424 45.8408 49.6641 45.8191 49.6891C45.7974 49.7158 45.7774 49.7375 45.7607 49.7542C45.699 49.8326 45.6372 49.9077 45.5772 49.9777C45.5154 50.0478 45.4537 50.1212 45.3937 50.1996C45.3753 50.218 45.3603 50.2346 45.3486 50.253C45.3369 50.2713 45.3202 50.288 45.3019 50.3047C45.2402 50.3831 45.1784 50.4599 45.1117 50.5333C45.0466 50.6067 44.9832 50.6834 44.9215 50.7618C44.7197 51.0154 44.5128 51.264 44.2992 51.5076C44.0857 51.7511 43.8788 52.0014 43.677 52.2533C43.6586 52.28 43.6386 52.305 43.6119 52.3317L43.5468 52.3968C43.4501 52.5186 43.355 52.637 43.2582 52.7504C43.1615 52.8639 43.0664 52.9823 42.9696 53.1041C42.9429 53.1392 42.9146 53.1692 42.8845 53.1959C42.8545 53.2226 42.8295 53.2526 42.8128 53.2876C42.716 53.4094 42.6143 53.5312 42.5041 53.6547C42.3957 53.7764 42.2923 53.8982 42.1955 54.0217C42.1438 54.0918 42.0837 54.1568 42.0187 54.2186C41.9536 54.2803 41.9119 54.3587 41.8935 54.4538C41.8752 54.5239 41.8852 54.5722 41.9202 54.5973C41.9553 54.624 41.9936 54.6456 42.0387 54.6623C42.0654 54.6623 42.1038 54.6707 42.1571 54.689H42.3273C42.354 54.6974 42.3857 54.7007 42.4257 54.6957C42.4641 54.6924 42.5025 54.689 42.5375 54.689H46.2695C46.3563 54.689 46.4347 54.6924 46.5047 54.6957C46.5748 54.7007 46.6315 54.719 46.6749 54.7541C46.7266 54.7975 46.76 54.8592 46.7733 54.9376C46.7867 55.016 46.7934 55.1028 46.7934 55.1995V55.9069C46.7934 55.9853 46.7867 56.0637 46.7733 56.1421C46.76 56.2205 46.7316 56.2772 46.6883 56.3123C46.6265 56.3557 46.5481 56.3807 46.453 56.384C46.3579 56.3874 46.2562 56.3907 46.1511 56.3907H39.5779C39.4895 56.3907 39.3994 56.3924 39.3027 56.3974C39.2059 56.4024 39.1325 56.3823 39.0791 56.339C39.0174 56.3039 38.9707 56.2305 38.9356 56.1171C38.9173 56.0554 38.914 55.9903 38.9223 55.9202C38.9306 55.8502 38.9356 55.7801 38.9356 55.71C38.9356 55.5615 38.9323 55.3964 38.929 55.2129C38.924 55.0294 38.944 54.8809 38.9874 54.7674C39.0307 54.6707 39.0858 54.5889 39.1509 54.5188C39.2159 54.4488 39.2793 54.3787 39.341 54.3086C39.4278 54.1869 39.5179 54.0751 39.6096 53.975C39.7014 53.8749 39.7915 53.7631 39.8782 53.6413C39.9049 53.6063 39.9333 53.5763 39.9633 53.5496C39.9933 53.5229 40.0184 53.4962 40.0351 53.4712C40.1051 53.3844 40.1702 53.3027 40.2319 53.2292C40.292 53.1558 40.3587 53.0791 40.4288 53.0007C40.4471 52.9823 40.4621 52.964 40.4755 52.9423C40.4888 52.9206 40.5038 52.9006 40.5205 52.8839C40.6857 52.6737 40.8592 52.4718 41.0377 52.275C41.2162 52.0781 41.3847 51.8712 41.5415 51.6527C41.5949 51.5826 41.6483 51.5192 41.705 51.4625C41.7618 51.4058 41.8168 51.3424 41.8685 51.2723C41.8852 51.2456 41.9069 51.2223 41.9336 51.2006C41.9603 51.1789 41.982 51.1555 41.9987 51.1289C42.0687 51.0321 42.1471 50.937 42.2339 50.8402C42.3206 50.7435 42.399 50.6434 42.4691 50.5383C42.5041 50.4949 42.5392 50.4582 42.5742 50.4265C42.6093 50.3965 42.6393 50.3631 42.666 50.3281C42.7878 50.1629 42.9162 50.0044 43.053 49.8559C43.1882 49.7075 43.3166 49.5506 43.4401 49.3838C43.4834 49.3404 43.5251 49.2937 43.5635 49.2453C43.6036 49.197 43.6353 49.1436 43.662 49.0818C43.6803 49.0652 43.6953 49.0401 43.7087 49.0101C43.722 48.9801 43.7187 48.9467 43.702 48.9117C43.6836 48.8416 43.6369 48.8032 43.5585 48.7932C43.4801 48.7849 43.3967 48.7765 43.3099 48.7665H40.337C40.2753 48.7665 40.2019 48.7682 40.1151 48.7732C40.0284 48.7782 39.9416 48.7799 39.8599 48.7799C39.7781 48.7799 39.6981 48.7765 39.6247 48.7665C39.5512 48.7582 39.4962 48.7398 39.4612 48.7131C39.4078 48.6781 39.3744 48.6164 39.3561 48.5296C39.3377 48.4429 39.3277 48.3444 39.3227 48.2343C39.3177 48.1259 39.3177 48.0141 39.3227 47.9007C39.3277 47.7872 39.3294 47.6905 39.3294 47.6121C39.3294 47.5337 39.331 47.4552 39.336 47.3768C39.341 47.2984 39.3594 47.2334 39.3944 47.18C39.4211 47.1266 39.4812 47.0932 39.5779 47.0749C39.5946 47.0665 39.613 47.0632 39.6297 47.0682C39.6463 47.0732 39.6647 47.0699 39.6814 47.0615V47.0699Z" fill="white"/>
<path d="M48.3513 47.0837H49.4774C49.5742 47.0837 49.666 47.0854 49.7527 47.0904C49.8395 47.0954 49.9062 47.1271 49.9496 47.1888C49.993 47.2505 50.018 47.3289 50.0213 47.424C50.0263 47.5208 50.028 47.6259 50.028 47.7377V55.5687C50.028 55.6821 50.0297 55.8089 50.0347 55.9491C50.0397 56.0892 50.0196 56.1926 49.9763 56.2627C49.9412 56.3244 49.8628 56.3728 49.741 56.4062C49.6793 56.4229 49.6142 56.4279 49.5442 56.4195C49.4741 56.4112 49.404 56.4062 49.334 56.4062H48.5615C48.4648 56.4062 48.3764 56.4012 48.2929 56.3928C48.2095 56.3845 48.1428 56.3578 48.0894 56.3144C48.046 56.2711 48.0193 56.206 48.011 56.1176C48.0027 56.0308 47.9977 55.9391 47.9977 55.8423V48.0113C47.9977 47.8895 47.996 47.7444 47.991 47.5792C47.986 47.414 48.006 47.2956 48.0494 47.2255C48.0844 47.1738 48.1411 47.1304 48.2195 47.0954C48.2462 47.0954 48.2696 47.0937 48.2913 47.0887C48.313 47.0837 48.333 47.082 48.3497 47.082L48.3513 47.0837Z" fill="white"/>
<path d="M52.029 47.0699H58.4203C58.5521 47.0699 58.6672 47.0765 58.7673 47.0899C58.8674 47.1032 58.9358 47.1583 58.9708 47.2534C58.9975 47.3151 59.0109 47.4069 59.0109 47.5287V47.8423C59.0109 47.904 59.0142 47.9657 59.0242 48.0325C59.0326 48.0975 59.0276 48.1526 59.0109 48.196V48.3528C59.0109 48.4662 58.9975 48.5663 58.9708 48.6548C58.9358 48.7415 58.8908 48.8166 58.834 48.8766C58.7773 48.9384 58.7223 49.0034 58.6706 49.0735C58.6005 49.1703 58.5271 49.262 58.4487 49.3488C58.3703 49.4372 58.2952 49.5273 58.2251 49.624C58.2068 49.6424 58.1884 49.6641 58.1667 49.6891C58.145 49.7158 58.125 49.7375 58.1083 49.7542C58.0466 49.8326 57.9849 49.9077 57.9248 49.9777C57.8631 50.0478 57.8014 50.1212 57.7413 50.1996C57.723 50.218 57.7079 50.2346 57.6963 50.253C57.6846 50.2713 57.6679 50.288 57.6495 50.3047C57.5878 50.3831 57.5261 50.4599 57.4594 50.5333C57.3943 50.6067 57.3309 50.6834 57.2692 50.7618C57.0673 51.0154 56.8604 51.264 56.6469 51.5076C56.4334 51.7511 56.2265 52.0014 56.0246 52.2533C56.0063 52.28 55.9863 52.305 55.9596 52.3317C55.9329 52.3584 55.9112 52.3801 55.8945 52.3968C55.7977 52.5186 55.7026 52.637 55.6059 52.7504C55.5091 52.8639 55.414 52.9823 55.3173 53.1041C55.2906 53.1392 55.2622 53.1692 55.2322 53.1959C55.2021 53.2226 55.1771 53.2526 55.1604 53.2876C55.0637 53.4094 54.9619 53.5312 54.8518 53.6547C54.7434 53.7764 54.6399 53.8982 54.5432 54.0217C54.4914 54.0918 54.4314 54.1568 54.3663 54.2186C54.3013 54.2803 54.2596 54.3587 54.2412 54.4538C54.2229 54.5239 54.2329 54.5722 54.2679 54.5973C54.3029 54.624 54.3413 54.6456 54.3863 54.6623C54.413 54.6623 54.4514 54.6707 54.5048 54.689H54.675C54.7017 54.6974 54.7334 54.7007 54.7734 54.6957C54.8118 54.6924 54.8501 54.689 54.8852 54.689H58.6172C58.7039 54.689 58.7823 54.6924 58.8524 54.6957C58.9225 54.7007 58.9792 54.719 59.0226 54.7541C59.0743 54.7975 59.1076 54.8592 59.121 54.9376C59.1343 55.016 59.141 55.1028 59.141 55.1995V55.9069C59.141 55.9853 59.1343 56.0637 59.121 56.1421C59.1076 56.2205 59.0793 56.2772 59.0359 56.3123C58.9742 56.3557 58.8958 56.3807 58.8007 56.384C58.7056 56.3874 58.6038 56.3907 58.4987 56.3907H51.9256C51.8372 56.3907 51.7471 56.3924 51.6503 56.3974C51.5536 56.4024 51.4802 56.3823 51.4268 56.339C51.365 56.3039 51.3183 56.2305 51.2833 56.1171C51.2649 56.0554 51.2616 55.9903 51.27 55.9202C51.2783 55.8502 51.2833 55.7801 51.2833 55.71C51.2833 55.5615 51.28 55.3964 51.2766 55.2129C51.2716 55.0294 51.2916 54.8809 51.335 54.7674C51.3784 54.6707 51.4334 54.5889 51.4985 54.5188C51.5636 54.4488 51.627 54.3787 51.6887 54.3086C51.7754 54.1869 51.8655 54.0751 51.9573 53.975C52.049 53.8749 52.1391 53.7631 52.2259 53.6413C52.2526 53.6063 52.2809 53.5763 52.311 53.5496C52.341 53.5229 52.366 53.4962 52.3827 53.4712C52.4528 53.3844 52.5178 53.3027 52.5796 53.2292C52.6396 53.1558 52.7064 53.0791 52.7764 53.0007C52.7948 52.9823 52.8098 52.964 52.8231 52.9423C52.8365 52.9206 52.8515 52.9006 52.8682 52.8839C53.0334 52.6737 53.2069 52.4718 53.3854 52.275C53.5639 52.0781 53.7324 51.8712 53.8892 51.6527C53.9426 51.5826 53.996 51.5192 54.0527 51.4625C54.1094 51.4058 54.1645 51.3424 54.2162 51.2723C54.2329 51.2456 54.2545 51.2223 54.2812 51.2006C54.3079 51.1789 54.3296 51.1555 54.3463 51.1289C54.4164 51.0321 54.4948 50.937 54.5815 50.8402C54.6683 50.7435 54.7467 50.6434 54.8168 50.5383C54.8518 50.4949 54.8868 50.4582 54.9219 50.4265C54.9569 50.3965 54.9869 50.3631 55.0136 50.3281C55.1354 50.1629 55.2639 50.0044 55.4007 49.8559C55.5358 49.7075 55.6643 49.5506 55.7877 49.3838C55.8311 49.3404 55.8728 49.2937 55.9112 49.2453C55.9512 49.197 55.9829 49.1436 56.0096 49.0818C56.028 49.0652 56.043 49.0401 56.0563 49.0101C56.0697 48.9801 56.0663 48.9467 56.0496 48.9117C56.0313 48.8416 55.9846 48.8032 55.9062 48.7932C55.8278 48.7849 55.7443 48.7765 55.6576 48.7665H52.6847C52.6229 48.7665 52.5495 48.7682 52.4628 48.7732C52.376 48.7782 52.2893 48.7799 52.2075 48.7799C52.1258 48.7799 52.0457 48.7765 51.9723 48.7665C51.8989 48.7582 51.8439 48.7398 51.8088 48.7131C51.7554 48.6781 51.7221 48.6164 51.7037 48.5296C51.6854 48.4429 51.6753 48.3444 51.6703 48.2343C51.6653 48.1259 51.6653 48.0141 51.6703 47.9007C51.6753 47.7872 51.677 47.6905 51.677 47.6121C51.677 47.5337 51.6787 47.4552 51.6837 47.3768C51.6887 47.2984 51.7071 47.2334 51.7421 47.18C51.7688 47.1266 51.8288 47.0932 51.9256 47.0749C51.9423 47.0665 51.9606 47.0632 51.9773 47.0682C51.994 47.0732 52.0123 47.0699 52.029 47.0615V47.0699Z" fill="white"/>
<path d="M60.699 47.0837H61.8251C61.9219 47.0837 62.0136 47.0854 62.1004 47.0904C62.1871 47.0954 62.2539 47.1271 62.2972 47.1888C62.3406 47.2505 62.3656 47.3289 62.369 47.424C62.374 47.5208 62.3756 47.6259 62.3756 47.7377V55.5687C62.3756 55.6821 62.3773 55.8089 62.3823 55.9491C62.3873 56.0892 62.3673 56.1926 62.3239 56.2627C62.2889 56.3244 62.2105 56.3728 62.0887 56.4062C62.027 56.4229 61.9619 56.4279 61.8918 56.4195C61.8218 56.4112 61.7517 56.4062 61.6816 56.4062H60.9092C60.8124 56.4062 60.724 56.4012 60.6406 56.3928C60.5572 56.3845 60.4905 56.3578 60.4371 56.3144C60.3937 56.2711 60.367 56.206 60.3587 56.1176C60.3503 56.0308 60.3453 55.9391 60.3453 55.8423V48.0113C60.3453 47.8895 60.3436 47.7444 60.3386 47.5792C60.3336 47.414 60.3537 47.2956 60.397 47.2255C60.4321 47.1738 60.4888 47.1304 60.5672 47.0954C60.5939 47.0954 60.6172 47.0937 60.6389 47.0887C60.6606 47.0837 60.6806 47.082 60.6973 47.082L60.699 47.0837Z" fill="white"/>
<path d="M68.2146 47.083H73.8585C73.9553 47.083 74.047 47.088 74.1338 47.0964C74.2205 47.1047 74.2873 47.1347 74.3306 47.1881C74.3657 47.2315 74.389 47.2915 74.4024 47.365C74.4157 47.4384 74.4224 47.5218 74.4224 47.6135C74.4224 47.7053 74.4207 47.797 74.4157 47.8888C74.4107 47.9806 74.409 48.0656 74.409 48.144C74.409 48.2058 74.4107 48.2675 74.4157 48.3276C74.4207 48.3893 74.4174 48.446 74.409 48.4977C74.3907 48.5411 74.3757 48.5828 74.364 48.6212C74.3506 48.6612 74.3273 48.6929 74.2923 48.7196C74.2222 48.773 74.1021 48.7964 73.9319 48.7914C73.7617 48.788 73.6149 48.7847 73.4931 48.7847H70.9657C70.8255 48.7847 70.6587 48.783 70.4618 48.778C70.265 48.773 70.1232 48.798 70.0364 48.8497C69.983 48.8848 69.9397 48.9498 69.9046 49.0466C69.8863 49.1083 69.8813 49.1867 69.8846 49.2818C69.8896 49.3786 69.8913 49.4603 69.8913 49.5304V50.1594C69.8913 50.2027 69.8896 50.2561 69.8846 50.3162C69.8796 50.3779 69.8829 50.4296 69.8913 50.473V50.6165C69.9096 50.6949 69.928 50.7599 69.9497 50.8133C69.9713 50.8667 70.0164 50.9051 70.0865 50.9318C70.1298 50.9501 70.1832 50.9601 70.2433 50.9652C70.3033 50.9702 70.3701 50.9718 70.4401 50.9718H72.7574C72.8275 50.9718 72.9076 50.9702 72.9993 50.9652C73.0911 50.9601 73.1828 50.9601 73.2746 50.9652C73.3663 50.9702 73.4498 50.9768 73.5232 50.9852C73.5966 50.9935 73.6516 51.0119 73.6867 51.0369C73.7734 51.0986 73.8151 51.2137 73.8118 51.3839C73.8068 51.5541 73.8051 51.7092 73.8051 51.8494C73.8051 51.9194 73.8068 51.9962 73.8118 52.0779C73.8151 52.1613 73.8084 52.2364 73.7918 52.3065C73.7567 52.4032 73.7084 52.4683 73.6483 52.5033C73.5866 52.5384 73.4698 52.5534 73.2946 52.55C73.1194 52.545 72.976 52.5434 72.8625 52.5434H70.7154C70.5502 52.5434 70.3884 52.5484 70.2316 52.5567C70.0748 52.5651 69.9747 52.6268 69.9313 52.7402C69.913 52.7669 69.9046 52.7953 69.9046 52.8253C69.9046 52.8553 69.8996 52.8837 69.8913 52.9104V55.4379C69.8913 55.5597 69.8929 55.7115 69.8979 55.89C69.9029 56.0685 69.8829 56.1986 69.8395 56.277C69.8129 56.3204 69.7778 56.3488 69.7344 56.3621C69.6911 56.3755 69.6477 56.3905 69.6027 56.4088C69.5409 56.4255 69.4759 56.4305 69.4058 56.4222C69.3357 56.4138 69.2657 56.4088 69.1973 56.4088H68.4382C68.3414 56.4088 68.253 56.4072 68.1696 56.4022C68.0862 56.3972 68.0194 56.3738 67.966 56.3304C67.9043 56.287 67.8726 56.2186 67.8676 56.1269C67.8626 56.0351 67.8609 55.9417 67.8609 55.8449V48.0139C67.8609 47.8921 67.8593 47.747 67.8543 47.5818C67.8493 47.4167 67.8693 47.2982 67.9127 47.2281C67.9477 47.1681 68.0128 47.123 68.1095 47.098C68.1279 47.0897 68.1446 47.0863 68.1629 47.0913C68.1813 47.0964 68.1979 47.093 68.2146 47.0847V47.083Z" fill="white"/>
<path d="M75.9685 47.0837H77.0946C77.1914 47.0837 77.2832 47.0854 77.3699 47.0904C77.4567 47.0954 77.5234 47.1271 77.5668 47.1888C77.6101 47.2505 77.6352 47.3289 77.6385 47.424C77.6435 47.5208 77.6452 47.6259 77.6452 47.7377V55.5687C77.6452 55.6821 77.6468 55.8089 77.6518 55.9491C77.6569 56.0892 77.6368 56.1926 77.5935 56.2627C77.5584 56.3244 77.48 56.3728 77.3582 56.4062C77.2965 56.4229 77.2314 56.4279 77.1614 56.4195C77.0913 56.4112 77.0212 56.4062 76.9512 56.4062H76.1787C76.082 56.4062 75.9936 56.4012 75.9101 56.3928C75.8267 56.3845 75.76 56.3578 75.7066 56.3144C75.6632 56.2711 75.6365 56.206 75.6282 56.1176C75.6199 56.0308 75.6148 55.9391 75.6148 55.8423V48.0113C75.6148 47.8895 75.6132 47.7444 75.6082 47.5792C75.6032 47.414 75.6232 47.2956 75.6666 47.2255C75.7016 47.1738 75.7583 47.1304 75.8367 47.0954C75.8634 47.0954 75.8868 47.0937 75.9085 47.0887C75.9302 47.0837 75.9502 47.082 75.9669 47.082L75.9685 47.0837Z" fill="white"/>
<path d="M87.3626 56.1053C87.3793 56.157 87.3776 56.2054 87.3559 56.2488C87.3342 56.2921 87.3092 56.3238 87.2842 56.3405C87.2308 56.3839 87.159 56.4039 87.0673 56.3989C86.9755 56.3939 86.8821 56.3922 86.7853 56.3922H86.0646C85.9245 56.3922 85.8027 56.3856 85.6976 56.3722C85.5925 56.3589 85.5141 56.3088 85.4624 56.2221C85.3923 56.1086 85.3539 55.9685 85.3439 55.8033C85.3356 55.6382 85.3139 55.4797 85.2789 55.3312C85.2789 55.2962 85.2772 55.2645 85.2722 55.2328C85.2672 55.2027 85.2655 55.1744 85.2655 55.1477C85.2388 55.0426 85.2271 54.9325 85.2271 54.814C85.2271 54.6956 85.2188 54.5888 85.2005 54.4937C85.1921 54.467 85.1871 54.4286 85.1871 54.3753C85.1688 54.2785 85.1537 54.1817 85.1421 54.08C85.1287 53.9799 85.1087 53.8814 85.0837 53.7847C85.0136 53.5845 84.9302 53.4043 84.8351 53.2475C84.7383 53.0907 84.6032 52.9722 84.4297 52.8938C84.3863 52.8754 84.3413 52.8638 84.2979 52.8538C84.2545 52.8454 84.2061 52.8321 84.1544 52.8154C83.9976 52.762 83.8158 52.737 83.6106 52.737H81.9272C81.8572 52.7553 81.7954 52.767 81.7437 52.7753C81.6903 52.7837 81.647 52.8104 81.6119 52.8538C81.5419 52.9422 81.5118 53.0773 81.5202 53.2592C81.5285 53.441 81.5335 53.6078 81.5335 53.7563V55.433C81.5335 55.503 81.5319 55.5748 81.5268 55.6498C81.5218 55.7232 81.5202 55.7966 81.5202 55.8667V56.0569C81.5202 56.1136 81.5118 56.1637 81.4935 56.2071C81.4668 56.2855 81.4151 56.3372 81.3367 56.3639C81.2933 56.3822 81.2399 56.3906 81.1798 56.3906H80.3941C80.2539 56.3906 80.1054 56.3922 79.9486 56.3972C79.7918 56.4022 79.6734 56.3739 79.5949 56.3122C79.5249 56.2688 79.4898 56.187 79.4898 56.0702V47.7621C79.4898 47.6653 79.4882 47.5652 79.4832 47.4601C79.4782 47.355 79.4982 47.2716 79.5416 47.2115C79.5766 47.1582 79.6417 47.1148 79.7384 47.0798C79.7568 47.0714 79.7751 47.0681 79.7968 47.0731C79.8185 47.0781 79.8385 47.0747 79.8552 47.0664H84.3079C84.448 47.0664 84.5815 47.0681 84.7066 47.0731C84.8334 47.0781 84.9535 47.0931 85.067 47.1198C85.1104 47.1381 85.1554 47.1465 85.2038 47.1465C85.2522 47.1465 85.2972 47.1548 85.3423 47.1732C85.404 47.1915 85.464 47.2082 85.5258 47.2249C85.5875 47.2432 85.6476 47.2649 85.7093 47.29C85.9278 47.3867 86.128 47.5035 86.3115 47.6436C86.4951 47.7838 86.6469 47.9456 86.7703 48.1275C86.8054 48.1708 86.8337 48.2175 86.8554 48.2642C86.8771 48.3126 86.9055 48.3577 86.9405 48.4027C87.0106 48.5245 87.0623 48.6513 87.0973 48.7814C87.1323 48.9132 87.1707 49.0567 87.2158 49.2135C87.2241 49.2485 87.2274 49.2836 87.2224 49.3186C87.2174 49.3537 87.2241 49.3887 87.2425 49.4237V49.5422C87.2608 49.6122 87.2641 49.6973 87.2558 49.7974C87.2475 49.8975 87.2341 49.9793 87.2158 50.0393C87.1974 50.1094 87.1891 50.1728 87.1891 50.2295C87.1891 50.2862 87.1807 50.3446 87.1624 50.4064C87.119 50.5365 87.0756 50.6616 87.0306 50.7801C86.9855 50.8985 86.9305 51.0086 86.8604 51.1137C86.8421 51.1404 86.822 51.1688 86.7954 51.1988C86.7687 51.2288 86.747 51.2572 86.7303 51.2839C86.7036 51.3189 86.6752 51.354 86.6452 51.389C86.6152 51.424 86.5818 51.454 86.5468 51.4807C86.4934 51.5241 86.4417 51.5675 86.39 51.6125C86.3382 51.6559 86.2815 51.6993 86.2198 51.7427C86.1848 51.7694 86.1497 51.7977 86.1147 51.8278C86.0796 51.8594 86.053 51.8961 86.0363 51.9395C86.0179 51.9929 86.0279 52.0363 86.063 52.0713C86.098 52.1064 86.128 52.133 86.1547 52.1497C86.2415 52.2198 86.3299 52.2899 86.4166 52.3599C86.5034 52.43 86.5785 52.5134 86.6402 52.6085C86.7453 52.757 86.827 52.9105 86.8888 53.0673C86.9505 53.2241 87.0072 53.4043 87.0589 53.6045C87.0773 53.6829 87.0873 53.7663 87.0923 53.8531C87.0957 53.9415 87.1073 54.0232 87.1257 54.1017C87.1257 54.1534 87.1273 54.2051 87.1324 54.2518C87.1374 54.3002 87.139 54.3502 87.139 54.4019C87.1474 54.437 87.1507 54.4737 87.1457 54.5137C87.1407 54.5538 87.144 54.5955 87.1524 54.6388C87.1607 54.6739 87.164 54.7089 87.159 54.7439C87.154 54.779 87.1574 54.8174 87.1657 54.8624C87.1824 54.9491 87.1924 55.0409 87.1924 55.1377C87.1924 55.2344 87.2007 55.3262 87.2191 55.4129L87.2591 55.6482C87.2758 55.7266 87.2942 55.805 87.3109 55.8834C87.3292 55.9618 87.3459 56.0369 87.3642 56.107L87.3626 56.1053ZM85.2005 50.1995C85.2188 50.1027 85.2205 49.9859 85.2071 49.8458C85.1938 49.7057 85.1788 49.6022 85.1621 49.5322C85.1437 49.4971 85.1354 49.4671 85.1354 49.4404C85.1354 49.4137 85.127 49.3887 85.1087 49.362C85.0036 49.0917 84.8117 48.8949 84.5331 48.7731C84.3847 48.703 84.2145 48.6646 84.0226 48.6546C83.8308 48.6463 83.6289 48.6413 83.4204 48.6413H81.9005C81.8822 48.6596 81.8655 48.6646 81.8488 48.6613C81.8305 48.6563 81.8138 48.6546 81.7954 48.6546C81.6903 48.6813 81.6203 48.7247 81.5852 48.7848C81.5419 48.8548 81.5218 48.9449 81.5268 49.0534C81.5319 49.1618 81.5335 49.2686 81.5335 49.3737V50.9052C81.5335 51.0103 81.5552 51.0937 81.5986 51.1538C81.6336 51.2055 81.6903 51.2405 81.7687 51.2589C81.8472 51.2772 81.9339 51.2889 82.0307 51.2972C82.1258 51.3056 82.2275 51.3089 82.331 51.3039C82.4361 51.2989 82.5278 51.2972 82.6062 51.2972H83.3787C83.4404 51.2972 83.5055 51.2989 83.5755 51.3039C83.6456 51.3089 83.7056 51.3022 83.759 51.2839H83.9292C83.9993 51.2672 84.0677 51.2572 84.1327 51.2572C84.1978 51.2572 84.2612 51.2488 84.3229 51.2305C84.4714 51.1871 84.6015 51.1304 84.715 51.0603C84.8284 50.9903 84.9252 50.8985 85.0036 50.7851C85.057 50.7066 85.0953 50.6199 85.122 50.5231C85.1487 50.4264 85.1738 50.3179 85.2005 50.1961V50.1995Z" fill="white"/>
<path d="M89.326 47.0703H91.4664C91.6099 47.0703 91.7217 47.1003 91.8001 47.1621C91.8618 47.2054 91.9052 47.2688 91.9319 47.3523C91.9585 47.4357 91.9836 47.5157 92.0103 47.5942C92.062 47.7343 92.1137 47.8761 92.1604 48.0196C92.2088 48.163 92.2588 48.3099 92.3106 48.4583C92.5108 49.0089 92.7009 49.5678 92.8795 50.135C93.058 50.7022 93.2532 51.2661 93.4617 51.825C93.5318 52.0002 93.5935 52.1787 93.6452 52.3622C93.6986 52.5457 93.7586 52.7242 93.8287 52.8994C93.8471 52.9427 93.8638 52.9861 93.8821 53.0295C93.8988 53.0729 93.9305 53.1079 93.9739 53.1346C93.9906 53.1429 94.0089 53.1529 94.0256 53.1613C94.0439 53.1696 94.0606 53.1663 94.0773 53.1479C94.1474 53.1313 94.1958 53.0779 94.2208 52.9911C94.2458 52.9044 94.2725 52.826 94.2992 52.7559C94.3692 52.5557 94.4326 52.3572 94.4894 52.1603C94.5461 51.9634 94.6095 51.7649 94.6796 51.5647C94.8547 51.0325 95.0282 50.497 95.2034 49.9615C95.3786 49.426 95.5521 48.8854 95.7272 48.3432C95.7706 48.2031 95.814 48.0663 95.8574 47.9312C95.9008 47.796 95.9441 47.6576 95.9892 47.5191C96.0159 47.449 96.0409 47.3789 96.0676 47.3105C96.0943 47.2421 96.141 47.1838 96.2111 47.1404C96.2644 47.097 96.3312 47.0753 96.4146 47.0753H98.6668C98.7502 47.0753 98.8136 47.0937 98.857 47.1287C98.9521 47.1804 99.0005 47.2788 99.0005 47.4223V55.8356C99.0005 55.9323 98.9988 56.0258 98.9938 56.1175C98.9888 56.2093 98.9604 56.276 98.9087 56.3211C98.857 56.3661 98.7903 56.3895 98.7118 56.3928C98.6334 56.3961 98.5467 56.3995 98.4499 56.3995H97.4673C97.3972 56.3811 97.3388 56.3694 97.2905 56.3594C97.2421 56.3511 97.2004 56.3211 97.1653 56.2677C97.1303 56.2243 97.112 56.1676 97.112 56.0975V51.8417C97.1036 51.7199 97.0986 51.6031 97.0986 51.4947V51.161C97.0986 51.0909 97.1003 51.0192 97.1053 50.9441C97.1086 50.8707 97.1019 50.7973 97.0853 50.7272C97.0669 50.6672 97.0586 50.6004 97.0586 50.5304C97.0586 50.4603 97.0319 50.4169 96.9801 50.3986C96.9535 50.3902 96.9334 50.3936 96.9218 50.4119C96.9084 50.4303 96.8967 50.442 96.8884 50.4503C96.8534 50.4853 96.825 50.527 96.8033 50.5754C96.7816 50.6238 96.7616 50.6688 96.7449 50.7139C96.6932 50.844 96.6415 50.9808 96.5948 51.1193C96.5464 51.2594 96.4963 51.3996 96.4446 51.538C96.4263 51.5898 96.4113 51.6431 96.3979 51.6948C96.3846 51.7466 96.3645 51.8 96.3395 51.8517C96.2961 51.9651 96.2561 52.0786 96.2211 52.192C96.186 52.3055 96.1477 52.4189 96.1026 52.5323C96.0843 52.559 96.0759 52.5874 96.0759 52.6174C96.0759 52.6475 96.0676 52.6758 96.0492 52.7025C96.0142 52.7809 95.9858 52.8643 95.9642 52.9511C95.9425 53.0395 95.9091 53.1263 95.8657 53.213C95.8307 53.2914 95.8023 53.3748 95.7806 53.4616C95.7589 53.5483 95.7306 53.6368 95.6956 53.7235C95.5904 53.9771 95.4987 54.2323 95.4203 54.4893C95.3419 54.7462 95.2535 55.0014 95.1584 55.255C95.14 55.2817 95.1317 55.3084 95.1317 55.3334C95.1317 55.3585 95.1233 55.3868 95.105 55.4118C95.0616 55.5086 95.0266 55.6054 94.9999 55.7055C94.9732 55.8056 94.9381 55.904 94.8948 56.0007C94.8681 56.0625 94.8447 56.1192 94.823 56.1709C94.8013 56.2243 94.768 56.2677 94.7246 56.3027C94.6812 56.3377 94.6378 56.3578 94.5945 56.3611C94.5511 56.3661 94.4977 56.3761 94.4377 56.3945H94.1374C94.0756 56.3945 94.0039 56.3961 93.9205 56.4011C93.8371 56.4061 93.7553 56.4078 93.6719 56.4078C93.5885 56.4078 93.5117 56.4028 93.4433 56.3945C93.3733 56.3861 93.3216 56.3678 93.2865 56.3411C93.2164 56.2977 93.1681 56.2477 93.143 56.1909C93.1164 56.1342 93.0863 56.0658 93.0513 55.9874C93.0079 55.8823 92.9695 55.7755 92.9395 55.6671C92.9095 55.5586 92.8711 55.4502 92.8277 55.3468L92.7877 55.2283C92.7443 55.1232 92.7043 55.0114 92.6693 54.8947C92.6342 54.7762 92.5942 54.6661 92.5508 54.561C92.5425 54.5343 92.5358 54.5109 92.5308 54.4893C92.5258 54.4676 92.5191 54.4425 92.5108 54.4175C92.4674 54.3391 92.4324 54.2557 92.4057 54.1689C92.379 54.0822 92.3489 53.9938 92.3139 53.907C92.3056 53.8887 92.2989 53.867 92.2939 53.842C92.2889 53.8153 92.2822 53.7936 92.2739 53.7769C92.2388 53.6901 92.2105 53.6017 92.1888 53.515C92.1671 53.4282 92.1337 53.3398 92.0903 53.2531C92.0203 53.0779 91.9552 52.8944 91.8935 52.7025C91.8318 52.5107 91.7667 52.3221 91.6966 52.1386C91.6182 51.9201 91.5431 51.6982 91.4747 51.4713C91.4047 51.2444 91.3213 51.0259 91.2262 50.8157C91.1828 50.6939 91.1344 50.5938 91.0827 50.5154C91.0643 50.497 91.0477 50.482 91.0293 50.4686C91.011 50.4553 90.9909 50.4586 90.9642 50.4753C90.9209 50.502 90.8992 50.5454 90.8992 50.6071C90.8992 50.6688 90.8908 50.7289 90.8725 50.7906C90.8541 50.8524 90.8491 50.9141 90.8525 50.9808C90.8575 51.0459 90.8591 51.1143 90.8591 51.1843V51.473C90.8591 51.5697 90.8541 51.6648 90.8458 51.7616V56.0958C90.8458 56.1659 90.8274 56.2226 90.7941 56.266C90.759 56.3277 90.694 56.3661 90.5972 56.3845C90.5355 56.4028 90.4704 56.4078 90.4004 56.4045C90.3303 56.4011 90.2602 56.3978 90.1918 56.3978H89.5112C89.4144 56.3978 89.3276 56.3961 89.2492 56.3911C89.1708 56.3861 89.1058 56.3628 89.0524 56.3194C88.999 56.276 88.9689 56.2076 88.9606 56.1159C88.9523 56.0241 88.9473 55.9307 88.9473 55.8339V47.5708C88.9473 47.5007 88.9523 47.4323 88.9606 47.3673C88.9689 47.3022 88.9823 47.2522 88.999 47.2171C89.034 47.1554 89.1041 47.112 89.2092 47.0853C89.2275 47.077 89.2442 47.0736 89.2626 47.0787C89.2793 47.0837 89.2976 47.0803 89.3143 47.072L89.326 47.0703Z" fill="white"/>
</svg>
