<svg width="17" height="16" viewBox="0 0 17 16" fill="none" xmlns="http://www.w3.org/2000/svg">
<path fill-rule="evenodd" clip-rule="evenodd" d="M17 5.71429C17 5.41118 16.8881 5.12049 16.6888 4.90616C16.4895 4.69184 16.2193 4.57143 15.9375 4.57143H4.98525C4.70346 4.57143 4.43321 4.69184 4.23395 4.90616C4.03469 5.12049 3.92275 5.41118 3.92275 5.71429C3.92275 6.01739 4.03469 6.30808 4.23395 6.52241C4.43321 6.73674 4.70346 6.85714 4.98525 6.85714H15.9375C16.2193 6.85714 16.4895 6.73674 16.6888 6.52241C16.8881 6.30808 17 6.01739 17 5.71429ZM17 1.14286C17 0.839753 16.8881 0.549062 16.6888 0.334735C16.4895 0.120408 16.2193 0 15.9375 0H1.0625C0.780708 0 0.510456 0.120408 0.311199 0.334735C0.11194 0.549062 0 0.839753 0 1.14286C0 1.44596 0.11194 1.73665 0.311199 1.95098C0.510456 2.16531 0.780708 2.28571 1.0625 2.28571H15.9375C16.2193 2.28571 16.4895 2.16531 16.6888 1.95098C16.8881 1.73665 17 1.44596 17 1.14286ZM17 10.2857C17 9.98261 16.8881 9.69192 16.6888 9.47759C16.4895 9.26327 16.2193 9.14286 15.9375 9.14286H1.0625C0.780708 9.14286 0.510456 9.26327 0.311199 9.47759C0.11194 9.69192 0 9.98261 0 10.2857C0 10.5888 0.11194 10.8795 0.311199 11.0938C0.510456 11.3082 0.780708 11.4286 1.0625 11.4286H15.9375C16.2193 11.4286 16.4895 11.3082 16.6888 11.0938C16.8881 10.8795 17 10.5888 17 10.2857ZM17 14.8571C17 14.554 16.8881 14.2633 16.6888 14.049C16.4895 13.8347 16.2193 13.7143 15.9375 13.7143H4.98525C4.70346 13.7143 4.43321 13.8347 4.23395 14.049C4.03469 14.2633 3.92275 14.554 3.92275 14.8571C3.92275 15.1602 4.03469 15.4509 4.23395 15.6653C4.43321 15.8796 4.70346 16 4.98525 16H15.9375C16.2193 16 16.4895 15.8796 16.6888 15.6653C16.8881 15.4509 17 15.1602 17 14.8571Z" fill="#34485C"/>
</svg>
