<?xml version="1.0" standalone="no"?>
<!DOCTYPE svg PUBLIC "-//W3C//DTD SVG 20010904//EN"
 "http://www.w3.org/TR/2001/REC-SVG-20010904/DTD/svg10.dtd">
<svg version="1.0" xmlns="http://www.w3.org/2000/svg"
 width="960.000000pt" height="960.000000pt" viewBox="0 0 960.000000 960.000000"
 preserveAspectRatio="xMidYMid meet">
<metadata>
Created by potrace 1.14, written by Peter Selinger 2001-2017
</metadata>
<g transform="translate(0.000000,960.000000) scale(0.100000,-0.100000)"
fill="#000000" stroke="none">
<path d="M4785 9500 c-34 -16 -47 -33 -78 -94 -20 -41 -37 -79 -37 -85 0 -6
-4 -11 -10 -11 -5 0 -10 -4 -10 -10 0 -5 -41 -94 -92 -197 -50 -103 -92 -190
-93 -193 0 -3 -5 -12 -10 -20 -5 -8 -10 -22 -12 -30 -1 -8 -7 -16 -12 -18 -6
-2 -11 -9 -11 -16 0 -14 -33 -81 -50 -101 -7 -8 -10 -15 -7 -15 3 0 -21 -54
-54 -121 -71 -144 -88 -202 -83 -290 4 -71 14 -100 101 -278 31 -64 55 -116
52 -116 -2 0 5 -13 16 -30 11 -16 28 -46 37 -65 9 -19 71 -147 138 -283 66
-136 120 -252 120 -258 0 -5 5 -9 10 -9 6 0 10 -5 10 -11 0 -6 33 -80 74 -163
41 -83 86 -176 100 -206 15 -30 31 -62 35 -70 5 -8 29 -58 54 -110 25 -52 91
-187 146 -299 56 -113 101 -211 101 -218 0 -7 4 -13 9 -13 5 0 13 -10 17 -22
6 -21 114 -244 355 -733 51 -104 92 -193 91 -197 -1 -5 3 -8 8 -8 6 0 10 -5
10 -10 0 -10 47 -107 313 -650 45 -91 80 -168 79 -172 -1 -5 3 -8 8 -8 5 0 9
-3 8 -7 -1 -5 46 -105 104 -223 58 -118 161 -327 229 -465 67 -137 123 -252
124 -255 0 -3 45 -95 100 -205 54 -110 99 -202 100 -205 1 -3 36 -76 78 -162
43 -87 77 -161 76 -164 0 -4 3 -10 8 -13 7 -5 44 -76 48 -91 0 -3 47 -99 104
-215 57 -115 144 -293 193 -395 50 -102 146 -297 213 -435 132 -269 246 -504
428 -877 127 -260 157 -302 245 -345 l57 -27 520 0 c573 -1 550 -3 592 60 31
48 21 89 -58 249 -40 83 -74 152 -74 155 -1 3 -44 91 -95 195 -52 105 -95 196
-96 203 -2 8 -10 22 -18 31 -9 10 -16 21 -16 24 0 4 -59 128 -131 275 -72 147
-152 310 -177 362 -25 52 -49 96 -53 98 -4 2 -6 9 -3 17 3 7 1 16 -4 19 -10 6
-72 129 -72 141 0 4 -10 21 -22 38 -13 18 -21 33 -20 35 2 2 -32 76 -76 165
-179 363 -232 475 -232 486 0 6 -4 11 -8 11 -7 0 -35 63 -30 66 2 1 -6 11 -16
23 -11 12 -15 21 -11 21 4 0 0 9 -11 21 -10 12 -18 23 -16 25 2 4 -29 68 -273
569 -51 105 -99 205 -106 222 -8 18 -17 33 -21 33 -5 0 -8 4 -8 10 0 10 -55
126 -280 585 -67 138 -163 333 -212 435 -50 102 -121 247 -159 323 -37 75 -65
137 -62 137 3 0 -1 8 -9 18 -17 19 -58 106 -58 122 0 5 -4 10 -9 10 -5 0 -12
12 -16 28 -3 15 -13 34 -20 42 -7 8 -14 18 -14 22 -2 15 -36 83 -50 101 -8 9
-12 17 -8 17 3 0 -25 62 -63 138 -37 75 -113 229 -168 342 -55 113 -150 309
-212 435 -62 127 -153 313 -202 415 -83 169 -292 596 -374 764 -19 37 -34 74
-34 81 0 7 -7 16 -16 19 -9 4 -14 9 -11 12 2 3 -13 42 -36 87 -22 45 -40 85
-39 90 1 4 -3 7 -8 7 -5 0 -9 3 -8 8 1 4 -47 106 -106 227 -119 242 -286 584
-287 587 0 2 -66 136 -147 298 -122 245 -152 297 -176 309 -47 22 -79 22 -121
1z"/>
<path d="M3824 7531 c-37 -17 -45 -29 -101 -142 -104 -210 -318 -650 -358
-734 -21 -44 -42 -81 -47 -83 -4 -2 -8 -10 -8 -17 0 -7 -16 -45 -35 -84 -19
-39 -35 -75 -35 -81 0 -5 -4 -10 -10 -10 -5 0 -10 -5 -10 -10 0 -6 -46 -103
-101 -218 -56 -114 -101 -209 -101 -212 0 -3 -7 -13 -16 -24 -9 -10 -16 -20
-15 -22 4 -5 -49 -118 -58 -124 -4 -3 -9 -14 -11 -25 -1 -11 -5 -22 -8 -25 -3
-3 -17 -30 -32 -60 -99 -201 -318 -652 -333 -685 -11 -22 -23 -43 -28 -46 -5
-3 -8 -9 -7 -13 1 -7 -33 -78 -204 -428 -58 -119 -106 -221 -106 -227 0 -6 -4
-11 -10 -11 -5 0 -10 -5 -10 -10 0 -6 -24 -60 -54 -120 -30 -61 -52 -110 -48
-110 4 0 1 -4 -6 -9 -7 -4 -14 -14 -16 -22 -1 -8 -11 -30 -21 -49 -20 -37 -32
-62 -105 -210 -52 -107 -61 -161 -34 -212 15 -29 64 -85 64 -72 0 2 12 -1 28
-9 22 -11 366 -13 1903 -12 l1875 1 37 22 c50 31 79 82 79 137 0 36 -17 79
-88 222 -49 98 -89 180 -89 183 0 3 -51 106 -112 230 -74 148 -125 239 -150
265 -44 46 -124 99 -168 110 -16 5 -37 10 -45 13 -8 3 -312 6 -675 8 -363 1
-674 3 -692 3 -75 2 -126 100 -89 169 8 15 56 113 107 217 50 105 114 237 143
295 28 58 50 108 48 113 -1 4 2 7 8 7 5 0 10 9 10 20 0 11 4 20 9 20 5 0 13
10 17 22 6 19 257 538 329 681 14 27 25 55 25 63 0 8 4 14 8 14 8 0 9 2 15
110 6 103 -6 136 -167 464 -75 153 -136 282 -136 287 0 5 -4 9 -10 9 -5 0 -10
5 -10 12 0 7 -35 82 -77 168 -42 85 -77 157 -78 160 -5 33 -53 86 -88 99 -39
15 -55 14 -103 -8z"/>
<path d="M1734 2881 c-3 -3 -12 -6 -21 -7 -78 -12 -160 -55 -224 -118 -48 -47
-63 -70 -119 -185 -171 -347 -270 -553 -270 -561 0 -6 -4 -10 -10 -10 -5 0 -9
-3 -8 -7 1 -5 -23 -60 -54 -124 -31 -63 -62 -126 -67 -140 -6 -13 -15 -31 -21
-39 -5 -8 -60 -118 -121 -245 -61 -126 -165 -340 -231 -475 -244 -498 -258
-529 -258 -560 0 -41 22 -83 57 -106 26 -17 58 -18 533 -19 538 -1 566 1 635
48 39 26 84 74 96 101 5 12 13 28 19 36 5 8 54 107 109 220 54 113 147 304
206 425 259 532 246 511 331 553 40 20 51 21 1562 21 1456 0 1524 -1 1563 -18
62 -28 100 -70 145 -162 130 -262 199 -406 200 -417 2 -8 11 -23 21 -34 10
-11 16 -21 14 -22 -2 0 46 -102 106 -226 61 -124 127 -261 149 -305 21 -44 42
-81 46 -83 4 -2 8 -8 8 -13 0 -18 67 -73 120 -98 l55 -25 515 -1 c560 -2 549
-2 590 55 30 42 27 93 -9 168 -17 34 -30 64 -28 66 1 2 -7 14 -18 26 -11 12
-18 23 -16 24 5 1 -25 63 -233 488 -53 109 -96 201 -96 204 1 4 -2 10 -7 13
-4 3 -24 40 -43 81 -19 41 -38 77 -42 78 -5 2 -8 9 -8 15 0 7 -40 93 -88 192
-49 99 -95 195 -103 213 -8 17 -17 32 -21 32 -5 0 -8 9 -8 20 0 11 -5 20 -12
20 -6 0 -9 3 -5 6 3 3 -15 47 -41 97 -26 51 -47 94 -47 97 -4 27 -263 528
-288 556 -66 75 -174 131 -267 139 -19 2 -35 4 -35 5 0 6 -58 4 -61 -2 -3 -5
-10 -5 -16 -2 -13 9 -272 9 -286 0 -6 -3 -13 -3 -16 2 -5 9 -70 7 -86 -3 -6
-3 -10 -3 -10 2 0 9 -114 8 -129 -1 -5 -4 -12 -3 -15 2 -3 5 -22 7 -43 4 -21
-2 -42 -3 -48 -3 -77 4 -285 2 -293 -3 -6 -3 -13 -3 -16 2 -5 9 -70 7 -86 -3
-6 -3 -10 -3 -10 2 0 9 -114 8 -129 -1 -5 -4 -12 -3 -15 2 -3 5 -22 7 -43 4
-21 -2 -42 -3 -48 -3 -77 4 -285 2 -293 -3 -6 -3 -13 -3 -16 2 -5 9 -70 7 -86
-3 -6 -3 -10 -3 -10 2 0 9 -114 8 -129 -1 -5 -4 -12 -3 -15 2 -3 5 -22 7 -43
4 -21 -2 -42 -3 -48 -3 -32 2 -222 2 -230 1 -5 -2 -14 -1 -20 0 -24 5 -92 3
-103 -3 -6 -4 -13 -4 -16 1 -6 10 -71 6 -88 -4 -6 -4 -9 -3 -5 2 6 10 -77 9
-93 -1 -5 -3 -10 -3 -10 2 0 10 -103 9 -119 -1 -6 -4 -11 -4 -11 1 0 4 -45 8
-100 8 -55 0 -100 -4 -100 -8 0 -5 -5 -5 -11 -1 -16 10 -149 11 -149 1 0 -5
-5 -5 -11 -2 -9 6 -158 10 -184 5 -5 -1 -14 -1 -20 0 -28 6 -77 4 -82 -2 -2
-5 -9 -5 -16 -1 -9 6 -113 8 -127 3 -3 -1 -9 -1 -15 0 -28 6 -77 4 -82 -2 -2
-5 -9 -5 -15 -2 -16 10 -248 11 -248 1 0 -5 -5 -5 -11 -1 -16 10 -149 11 -149
1 0 -5 -5 -5 -11 -1 -6 3 -37 6 -70 5 -82 -2 -79 -2 -127 1 -24 2 -46 1 -48
-1z"/>
</g>
</svg>
